<svg width="119" height="118" viewBox="0 0 119 118" fill="none" xmlns="http://www.w3.org/2000/svg">
<g clip-path="url(#clip0_4_2)">
<path fill-rule="evenodd" clip-rule="evenodd" d="M57.9988 48.898L66.9968 39.885C69.4448 37.437 72.2668 35.795 75.4608 34.959C78.6558 34.123 81.8348 34.093 84.9998 34.869C88.1648 35.645 90.9558 37.243 93.3748 39.661L95.7928 42.079C98.1818 44.468 99.7708 47.252 100.563 50.432C101.354 53.611 101.331 56.798 100.495 59.993C99.6588 63.187 98.0168 66.009 95.5688 68.457L86.3228 77.703C88.6608 75.302 90.2358 72.548 91.0488 69.442C91.8848 66.247 91.9068 63.06 91.1158 59.88C90.3248 56.701 88.7348 53.917 86.3468 51.528L83.9278 49.11C81.5098 46.692 78.7188 45.094 75.5538 44.318C72.3888 43.542 69.2098 43.572 66.0148 44.408C63.0138 45.193 60.3418 46.69 57.9988 48.898C58.0018 48.9 57.9958 48.896 57.9988 48.898Z" fill="#50D6BE"/>
<path fill-rule="evenodd" clip-rule="evenodd" d="M50.0777 56.807L40.6227 66.262C39.5477 67.337 38.2707 67.897 36.7927 67.942C35.3157 67.986 34.0687 67.501 33.0537 66.486L31.9327 65.365L31.9307 65.367C29.5127 62.949 27.9227 60.15 27.1617 56.97C26.3997 53.79 26.4447 50.611 27.2957 47.431C28.1227 44.339 29.7057 41.594 32.0427 39.194L32.2447 38.989L47.0007 24.233C49.3627 21.979 52.0567 20.447 55.0807 19.637C58.2607 18.786 61.4407 18.742 64.6197 19.503C66.1037 19.858 67.5047 20.394 68.8217 21.11L68.9227 21.21L41.6937 48.439L41.5807 48.554C40.5787 49.604 40.0497 50.835 39.9917 52.245C39.9327 53.708 40.3947 54.932 41.3807 55.918L42.4997 57.037C43.5147 58.052 44.7617 58.537 46.2397 58.493C47.7177 58.448 49.0027 57.882 50.0777 56.807Z" fill="#50D6BE"/>
<path fill-rule="evenodd" clip-rule="evenodd" d="M31.9342 65.3648L33.0553 66.4859C34.0704 67.5009 35.3166 67.9862 36.7945 67.9413C38.2724 67.8963 39.5491 67.3367 40.6235 66.2622L57.552 49.3338C59.9999 46.8858 62.8214 45.2437 66.0159 44.4079C69.2109 43.5715 72.3903 43.5415 75.5548 44.3174C78.7198 45.0938 81.5108 46.6916 83.9294 49.1102L86.3474 51.5282C88.736 53.9168 90.3263 56.7003 91.1177 59.8803C91.9086 63.0597 91.8861 66.2467 91.0497 69.4417C90.2139 72.6361 88.5717 75.4576 86.1237 77.9056L69.5809 94.4484C67.4234 96.29 65.0014 97.5627 62.3159 98.2653C59.1215 99.1011 55.9346 99.1236 52.7551 98.3328C51.2887 97.9673 49.9065 97.4324 48.6084 96.7281L48.5058 96.6255L76.6747 68.4566C77.7497 67.3816 78.3088 66.1054 78.3538 64.6275C78.3988 63.1496 77.9135 61.9035 76.8984 60.8884L74.5691 58.5592C73.5241 57.5141 72.2629 57.0138 70.785 57.0588C69.3071 57.1038 68.0316 57.6634 66.9566 58.7384L50.0281 75.6668C47.5801 78.1148 44.7586 79.757 41.5642 80.5928C38.3692 81.4291 35.1742 81.4585 31.9803 80.6821C28.7859 79.9063 25.9938 78.3235 23.6057 75.9354L22.4858 74.8155C20.0678 72.3975 18.478 69.5984 17.7166 66.4184C16.9546 63.239 16.9996 60.0595 17.8509 56.8795C18.7017 53.7001 20.3514 50.8861 22.7993 48.4381L32.0443 39.1932C29.7064 41.5933 28.1247 44.3393 27.297 47.4311C26.4462 50.6106 26.4013 53.79 27.1627 56.97C27.9236 60.1495 29.5133 62.9485 31.9319 65.3671L31.9342 65.3648ZM59.476 30.6572L59.4777 30.6589L41.5821 48.5545C41.619 48.5153 41.6564 48.4767 41.6951 48.4381L59.476 30.6572Z" fill="#1F2335"/>
</g>
<defs>
<clipPath id="clip0_4_2">
<rect width="119" height="118" fill="white"/>
</clipPath>
</defs>
</svg>
