<?xml version="1.0" encoding="UTF-8" standalone="no"?>
<!DOCTYPE svg PUBLIC "-//W3C//DTD SVG 1.1//EN" "http://www.w3.org/Graphics/SVG/1.1/DTD/svg11.dtd">
<svg width="100%" height="100%" viewBox="0 0 119 118" version="1.1" xmlns="http://www.w3.org/2000/svg" xmlns:xlink="http://www.w3.org/1999/xlink" xml:space="preserve" xmlns:serif="http://www.serif.com/" style="fill-rule:evenodd;clip-rule:evenodd;stroke-linejoin:round;stroke-miterlimit:2;">
    <g id="Artboard1" transform="matrix(0.727533,0,0,0.766301,-1215.09,-608.056)">
        <rect x="1670.15" y="793.495" width="162.621" height="153.821" style="fill:none;"/>
        <g transform="matrix(1,0,0,1,1.26326,1.97197)">
            <g transform="matrix(1.37451,0,0,1.30497,1668.89,791.523)">
                <path d="M57.997,48.898L66.995,39.885C69.443,37.437 72.265,35.795 75.459,34.959C78.654,34.123 81.833,34.093 84.998,34.869C88.163,35.645 90.954,37.243 93.373,39.661L95.791,42.079C98.18,44.468 99.769,47.252 100.561,50.432C101.352,53.611 101.329,56.798 100.493,59.993C99.657,63.187 98.015,66.009 95.567,68.457L86.321,77.703C88.659,75.302 90.234,72.548 91.047,69.442C91.883,66.247 91.905,63.06 91.114,59.88C90.323,56.701 88.733,53.917 86.345,51.528L83.926,49.11C81.508,46.692 78.717,45.094 75.552,44.318C72.387,43.542 69.208,43.572 66.013,44.408C63.012,45.193 60.34,46.69 57.997,48.898C57.994,48.896 58,48.9 57.997,48.898Z" style="fill:rgb(80,214,190);"/>
            </g>
            <g transform="matrix(1.37451,0,0,1.30497,1668.89,791.523)">
                <path d="M50.076,56.807L40.621,66.262C39.546,67.337 38.269,67.897 36.791,67.942C35.314,67.986 34.067,67.501 33.052,66.486L31.931,65.365L31.929,65.367C29.511,62.949 27.921,60.15 27.16,56.97C26.398,53.79 26.443,50.611 27.294,47.431C28.121,44.339 29.704,41.594 32.041,39.194L32.243,38.989L46.999,24.233C49.361,21.979 52.055,20.447 55.079,19.637C58.259,18.786 61.439,18.742 64.618,19.503C66.102,19.858 67.503,20.394 68.82,21.11L68.921,21.21L41.692,48.439L41.579,48.554C40.577,49.604 40.048,50.835 39.99,52.245C39.931,53.708 40.393,54.932 41.379,55.918L42.498,57.037C43.513,58.052 44.76,58.537 46.238,58.493C47.716,58.448 49.001,57.882 50.076,56.807C50.076,56.807 50.075,56.806 50.076,56.807Z" style="fill:rgb(80,214,190);"/>
            </g>
            <g transform="matrix(0.792273,-0.75219,0.792273,0.75219,1112.95,726.357)">
                <path d="M278.533,478.569C278.533,478.57 278.533,480.514 278.533,480.514C278.533,482.275 279.193,483.777 280.514,485.02C281.835,486.263 283.428,486.885 285.292,486.885L314.661,486.885C318.908,486.885 322.78,487.908 326.276,489.954C329.773,492 332.557,494.732 334.629,498.15C336.701,501.569 337.736,505.376 337.736,509.572L337.736,513.767C337.736,517.911 336.701,521.705 334.629,525.15C332.557,528.594 329.773,531.339 326.276,533.385C322.78,535.431 318.908,536.454 314.661,536.454L285.961,536.454C282.492,536.18 279.287,535.183 276.348,533.463C272.852,531.417 270.068,528.672 267.996,525.228C267.041,523.639 266.306,521.976 265.791,520.239L265.791,520.061L314.661,520.061C316.526,520.061 318.118,519.439 319.439,518.196C320.76,516.953 321.42,515.451 321.42,513.69L321.42,509.649C321.42,507.836 320.76,506.308 319.439,505.065C318.118,503.822 316.526,503.201 314.661,503.201L285.292,503.201C281.045,503.201 277.173,502.178 273.677,500.132C270.18,498.086 267.383,495.34 265.286,491.896C263.188,488.452 262.139,484.657 262.139,480.514L262.139,478.571C262.139,474.376 263.188,470.569 265.286,467.15C267.383,463.731 270.18,461.012 273.677,458.992C277.173,456.972 281.045,455.962 285.292,455.962L301.331,455.962C297.221,456.016 293.467,457.026 290.067,458.99C286.571,461.01 283.774,463.729 281.676,467.148C279.578,470.566 278.529,474.373 278.529,478.569L278.533,478.569ZM332.531,472.353L332.531,472.356L301.484,472.356C301.55,472.354 301.616,472.353 301.683,472.353L332.531,472.353Z" style="fill:white;"/>
            </g>
        </g>
    </g>
</svg>
