<svg width="1944" height="624" viewBox="0 0 1944 624" fill="none" xmlns="http://www.w3.org/2000/svg">
<rect x="96" y="136" width="256" height="128" rx="6" fill="#BB9AF7"/>
<path d="M145.332 207.312C145.332 206.773 145.504 206.312 145.848 205.93C146.199 205.547 146.703 205.355 147.36 205.355C148 205.355 148.5 205.547 148.86 205.93C149.219 206.305 149.399 206.766 149.399 207.312C149.399 207.859 149.215 208.316 148.848 208.684C148.488 209.051 147.992 209.234 147.36 209.234C146.719 209.234 146.219 209.051 145.86 208.684C145.508 208.309 145.332 207.852 145.332 207.312ZM164.083 205.566C164.083 205.348 164.032 205.152 163.931 204.98C163.837 204.809 163.677 204.645 163.45 204.488C163.208 204.348 162.892 204.215 162.501 204.09C162.111 203.965 161.622 203.848 161.036 203.738C160.302 203.59 159.63 203.406 159.021 203.188C158.419 202.969 157.9 202.703 157.462 202.391C157.032 202.094 156.697 201.742 156.454 201.336C156.212 200.93 156.091 200.457 156.091 199.918C156.091 199.402 156.212 198.914 156.454 198.453C156.704 197.984 157.06 197.574 157.521 197.223C157.974 196.871 158.521 196.594 159.161 196.391C159.81 196.188 160.529 196.086 161.318 196.086C162.161 196.086 162.919 196.191 163.591 196.402C164.263 196.605 164.833 196.887 165.302 197.246C165.763 197.605 166.118 198.031 166.368 198.523C166.618 199.016 166.743 199.547 166.743 200.117H163.943C163.943 199.883 163.892 199.66 163.79 199.449C163.697 199.23 163.556 199.035 163.368 198.863C163.15 198.66 162.868 198.5 162.525 198.383C162.181 198.258 161.779 198.195 161.318 198.195C160.896 198.195 160.525 198.242 160.204 198.336C159.892 198.422 159.634 198.543 159.431 198.699C159.228 198.84 159.075 199.008 158.974 199.203C158.872 199.391 158.822 199.59 158.822 199.801C158.822 200.02 158.865 200.219 158.95 200.398C159.036 200.57 159.189 200.723 159.407 200.855C159.611 200.996 159.892 201.125 160.251 201.242C160.618 201.359 161.079 201.465 161.634 201.559C162.407 201.699 163.115 201.871 163.755 202.074C164.396 202.277 164.943 202.527 165.396 202.824C165.849 203.137 166.2 203.504 166.45 203.926C166.7 204.348 166.825 204.848 166.825 205.426C166.825 205.988 166.693 206.504 166.427 206.973C166.169 207.441 165.802 207.844 165.325 208.18C164.841 208.516 164.263 208.777 163.591 208.965C162.919 209.152 162.173 209.246 161.353 209.246C160.439 209.246 159.626 209.125 158.915 208.883C158.212 208.641 157.622 208.32 157.146 207.922C156.661 207.531 156.294 207.082 156.044 206.574C155.794 206.066 155.669 205.551 155.669 205.027H158.388C158.411 205.418 158.513 205.75 158.693 206.023C158.88 206.289 159.115 206.504 159.396 206.668C159.669 206.84 159.982 206.965 160.333 207.043C160.685 207.113 161.04 207.148 161.4 207.148C161.884 207.148 162.306 207.098 162.665 206.996C163.032 206.895 163.325 206.758 163.544 206.586C163.724 206.445 163.857 206.293 163.943 206.129C164.036 205.957 164.083 205.77 164.083 205.566ZM169.241 202.543C169.241 201.621 169.373 200.77 169.639 199.988C169.905 199.199 170.291 198.516 170.799 197.938C171.299 197.359 171.912 196.906 172.639 196.578C173.366 196.25 174.194 196.086 175.123 196.086C176.053 196.086 176.881 196.25 177.608 196.578C178.342 196.906 178.963 197.359 179.471 197.938C179.971 198.516 180.354 199.199 180.619 199.988C180.885 200.77 181.018 201.621 181.018 202.543V202.789C181.018 203.719 180.885 204.574 180.619 205.355C180.354 206.137 179.971 206.816 179.471 207.395C178.971 207.973 178.354 208.426 177.619 208.754C176.893 209.082 176.069 209.246 175.147 209.246C174.217 209.246 173.385 209.082 172.651 208.754C171.916 208.426 171.299 207.973 170.799 207.395C170.291 206.816 169.905 206.137 169.639 205.355C169.373 204.574 169.241 203.719 169.241 202.789V202.543ZM172.041 202.789C172.041 203.359 172.1 203.898 172.217 204.406C172.342 204.914 172.534 205.359 172.791 205.742C173.041 206.125 173.362 206.43 173.752 206.656C174.143 206.875 174.608 206.984 175.147 206.984C175.67 206.984 176.127 206.875 176.518 206.656C176.909 206.43 177.229 206.125 177.479 205.742C177.729 205.359 177.912 204.914 178.03 204.406C178.155 203.898 178.217 203.359 178.217 202.789V202.543C178.217 201.988 178.155 201.457 178.03 200.949C177.905 200.441 177.721 199.996 177.479 199.613C177.221 199.23 176.897 198.926 176.506 198.699C176.123 198.473 175.662 198.359 175.123 198.359C174.592 198.359 174.131 198.473 173.741 198.699C173.358 198.926 173.041 199.23 172.791 199.613C172.534 199.996 172.342 200.441 172.217 200.949C172.1 201.457 172.041 201.988 172.041 202.543V202.789ZM185.308 196.32L185.39 197.715C185.632 197.207 185.964 196.809 186.386 196.52C186.816 196.23 187.331 196.086 187.933 196.086C188.245 196.086 188.527 196.121 188.777 196.191C189.027 196.262 189.242 196.371 189.421 196.52C189.562 196.629 189.687 196.762 189.796 196.918C189.906 197.066 189.999 197.238 190.077 197.434C190.187 197.254 190.312 197.086 190.452 196.93C190.593 196.773 190.745 196.641 190.91 196.531C191.12 196.391 191.355 196.281 191.613 196.203C191.878 196.125 192.167 196.086 192.48 196.086C192.886 196.086 193.257 196.156 193.593 196.297C193.937 196.43 194.234 196.637 194.484 196.918C194.734 197.215 194.925 197.602 195.058 198.078C195.199 198.547 195.269 199.113 195.269 199.777V209H192.691V199.754C192.691 199.504 192.663 199.293 192.609 199.121C192.554 198.941 192.476 198.797 192.374 198.688C192.273 198.586 192.148 198.512 191.999 198.465C191.859 198.418 191.702 198.395 191.531 198.395C191.351 198.395 191.195 198.418 191.062 198.465C190.929 198.512 190.812 198.578 190.71 198.664C190.617 198.742 190.538 198.836 190.476 198.945C190.413 199.047 190.367 199.164 190.335 199.297C190.335 199.328 190.335 199.367 190.335 199.414C190.335 199.453 190.335 199.512 190.335 199.59V209H187.804V199.742C187.804 199.492 187.777 199.281 187.722 199.109C187.675 198.93 187.601 198.789 187.499 198.688C187.398 198.586 187.277 198.512 187.136 198.465C187.003 198.418 186.851 198.395 186.679 198.395C186.492 198.395 186.324 198.422 186.175 198.477C186.035 198.523 185.913 198.598 185.812 198.699C185.734 198.77 185.663 198.852 185.601 198.945C185.546 199.039 185.495 199.145 185.449 199.262V209H182.87V196.32H185.308ZM203.59 209.234C202.653 209.234 201.793 209.078 201.012 208.766C200.239 208.453 199.575 208.02 199.02 207.465C198.465 206.918 198.036 206.273 197.731 205.531C197.434 204.781 197.286 203.973 197.286 203.105V202.625C197.286 201.633 197.442 200.734 197.754 199.93C198.067 199.125 198.497 198.438 199.043 197.867C199.59 197.297 200.223 196.859 200.942 196.555C201.668 196.242 202.442 196.086 203.262 196.086C204.176 196.086 204.985 196.242 205.688 196.555C206.391 196.859 206.981 197.285 207.457 197.832C207.934 198.387 208.293 199.047 208.536 199.812C208.778 200.578 208.899 201.414 208.899 202.32V203.527H200.11V203.586C200.196 204.141 200.329 204.605 200.508 204.98C200.688 205.355 200.934 205.691 201.247 205.988C201.559 206.301 201.926 206.543 202.348 206.715C202.778 206.887 203.247 206.973 203.754 206.973C204.45 206.973 205.098 206.84 205.7 206.574C206.301 206.301 206.797 205.914 207.188 205.414L208.688 206.867C208.266 207.477 207.618 208.023 206.743 208.508C205.875 208.992 204.825 209.234 203.59 209.234ZM203.25 198.359C202.852 198.359 202.481 198.434 202.137 198.582C201.801 198.723 201.5 198.926 201.235 199.191C200.969 199.465 200.747 199.793 200.567 200.176C200.387 200.559 200.254 200.992 200.168 201.477H206.133V201.289C206.133 200.922 206.067 200.559 205.934 200.199C205.801 199.832 205.614 199.512 205.372 199.238C205.137 198.973 204.84 198.762 204.481 198.605C204.129 198.441 203.719 198.359 203.25 198.359ZM213.916 202.062C213.916 200.961 214.001 199.922 214.173 198.945C214.345 197.961 214.576 197.051 214.865 196.215C215.162 195.395 215.501 194.641 215.884 193.953C216.275 193.266 216.685 192.656 217.115 192.125C217.537 191.594 217.97 191.145 218.416 190.777C218.861 190.402 219.291 190.113 219.705 189.91L220.267 191.539C220.017 191.727 219.767 191.953 219.517 192.219C219.267 192.484 219.021 192.785 218.779 193.121C218.443 193.598 218.126 194.156 217.83 194.797C217.541 195.438 217.291 196.137 217.08 196.895C216.884 197.605 216.728 198.391 216.611 199.25C216.501 200.109 216.447 201.039 216.447 202.039V202.285C216.447 203.262 216.501 204.172 216.611 205.016C216.72 205.852 216.849 206.562 216.998 207.148C217.185 207.852 217.4 208.504 217.642 209.105C217.892 209.707 218.154 210.238 218.427 210.699C218.716 211.168 219.017 211.582 219.33 211.941C219.642 212.301 219.955 212.602 220.267 212.844L219.705 214.414C219.291 214.211 218.861 213.922 218.416 213.547C217.97 213.18 217.533 212.73 217.103 212.199C216.673 211.668 216.263 211.059 215.873 210.371C215.49 209.691 215.154 208.934 214.865 208.098C214.576 207.27 214.345 206.371 214.173 205.402C214.001 204.426 213.916 203.379 213.916 202.262V202.062ZM229.737 209L224.745 196.32H227.651L230.792 205.52L230.979 206.363L231.167 205.52L234.272 196.32H237.178L232.21 209H229.737ZM247.644 209C247.558 208.844 247.488 208.656 247.433 208.438C247.386 208.211 247.343 207.977 247.304 207.734C247.109 207.938 246.886 208.133 246.636 208.32C246.394 208.5 246.121 208.656 245.816 208.789C245.511 208.93 245.183 209.039 244.832 209.117C244.48 209.195 244.101 209.234 243.695 209.234C243.039 209.234 242.437 209.141 241.89 208.953C241.351 208.758 240.89 208.492 240.507 208.156C240.117 207.828 239.812 207.434 239.593 206.973C239.382 206.504 239.277 206 239.277 205.461C239.277 204.766 239.414 204.152 239.687 203.621C239.968 203.082 240.375 202.637 240.906 202.285C241.398 201.957 242.004 201.707 242.722 201.535C243.449 201.363 244.269 201.277 245.183 201.277H247.222V200.422C247.222 200.094 247.164 199.797 247.046 199.531C246.937 199.266 246.777 199.035 246.566 198.84C246.339 198.645 246.062 198.496 245.734 198.395C245.414 198.285 245.043 198.23 244.621 198.23C244.238 198.23 243.902 198.277 243.613 198.371C243.332 198.465 243.097 198.594 242.91 198.758C242.722 198.906 242.582 199.09 242.488 199.309C242.402 199.52 242.359 199.746 242.359 199.988H239.546C239.554 199.48 239.675 198.992 239.91 198.523C240.144 198.055 240.488 197.641 240.941 197.281C241.379 196.914 241.918 196.625 242.558 196.414C243.207 196.195 243.945 196.086 244.773 196.086C245.515 196.086 246.207 196.18 246.847 196.367C247.496 196.547 248.054 196.816 248.523 197.176C248.992 197.535 249.359 197.992 249.625 198.547C249.89 199.094 250.023 199.727 250.023 200.445V206.082C250.023 206.652 250.062 207.168 250.14 207.629C250.226 208.082 250.347 208.473 250.504 208.801V209H247.644ZM244.234 206.984C244.601 206.984 244.941 206.938 245.254 206.844C245.574 206.75 245.863 206.629 246.121 206.48C246.379 206.332 246.601 206.164 246.789 205.977C246.976 205.789 247.121 205.594 247.222 205.391V203.047H245.418C244.808 203.047 244.281 203.105 243.836 203.223C243.39 203.332 243.035 203.492 242.769 203.703C242.535 203.883 242.359 204.098 242.242 204.348C242.132 204.598 242.078 204.879 242.078 205.191C242.078 205.449 242.125 205.691 242.218 205.918C242.312 206.137 242.449 206.324 242.629 206.48C242.808 206.637 243.031 206.762 243.296 206.855C243.562 206.941 243.875 206.984 244.234 206.984ZM254.044 191H260.876V206.68H264.719V209H254.044V206.68H258.051V193.332H254.044V191ZM275.771 209L275.607 207.23C275.177 207.863 274.654 208.359 274.037 208.719C273.42 209.07 272.728 209.246 271.963 209.246C271.306 209.246 270.705 209.145 270.158 208.941C269.619 208.73 269.154 208.406 268.763 207.969C268.381 207.531 268.084 206.973 267.873 206.293C267.662 205.605 267.556 204.785 267.556 203.832V196.32H270.357V203.855C270.357 204.441 270.4 204.934 270.486 205.332C270.572 205.723 270.709 206.035 270.896 206.27C271.084 206.512 271.322 206.684 271.611 206.785C271.9 206.887 272.24 206.938 272.631 206.938C273.037 206.938 273.4 206.895 273.72 206.809C274.041 206.715 274.322 206.59 274.564 206.434C274.767 206.293 274.947 206.129 275.103 205.941C275.259 205.746 275.392 205.531 275.502 205.297V196.32H278.314V209H275.771ZM287.339 209.234C286.401 209.234 285.542 209.078 284.76 208.766C283.987 208.453 283.323 208.02 282.768 207.465C282.214 206.918 281.784 206.273 281.479 205.531C281.182 204.781 281.034 203.973 281.034 203.105V202.625C281.034 201.633 281.19 200.734 281.503 199.93C281.815 199.125 282.245 198.438 282.792 197.867C283.339 197.297 283.971 196.859 284.69 196.555C285.417 196.242 286.19 196.086 287.01 196.086C287.925 196.086 288.733 196.242 289.436 196.555C290.139 196.859 290.729 197.285 291.206 197.832C291.682 198.387 292.042 199.047 292.284 199.812C292.526 200.578 292.647 201.414 292.647 202.32V203.527H283.858V203.586C283.944 204.141 284.077 204.605 284.257 204.98C284.436 205.355 284.682 205.691 284.995 205.988C285.307 206.301 285.675 206.543 286.096 206.715C286.526 206.887 286.995 206.973 287.503 206.973C288.198 206.973 288.846 206.84 289.448 206.574C290.05 206.301 290.546 205.914 290.936 205.414L292.436 206.867C292.014 207.477 291.366 208.023 290.491 208.508C289.624 208.992 288.573 209.234 287.339 209.234ZM286.999 198.359C286.6 198.359 286.229 198.434 285.885 198.582C285.55 198.723 285.249 198.926 284.983 199.191C284.718 199.465 284.495 199.793 284.315 200.176C284.135 200.559 284.003 200.992 283.917 201.477H289.882V201.289C289.882 200.922 289.815 200.559 289.682 200.199C289.55 199.832 289.362 199.512 289.12 199.238C288.885 198.973 288.589 198.762 288.229 198.605C287.878 198.441 287.468 198.359 286.999 198.359ZM303.734 202.262C303.734 203.355 303.644 204.387 303.465 205.355C303.293 206.324 303.058 207.223 302.762 208.051C302.465 208.887 302.121 209.648 301.73 210.336C301.34 211.023 300.926 211.633 300.488 212.164C300.051 212.711 299.605 213.172 299.152 213.547C298.699 213.922 298.262 214.211 297.84 214.414L297.289 212.844C297.586 212.625 297.883 212.348 298.18 212.012C298.476 211.676 298.765 211.289 299.047 210.852C299.344 210.367 299.621 209.816 299.879 209.199C300.144 208.59 300.367 207.914 300.547 207.172C300.719 206.484 300.851 205.734 300.945 204.922C301.047 204.109 301.097 203.23 301.097 202.285V202.039C301.097 201.062 301.043 200.164 300.933 199.344C300.824 198.523 300.687 197.789 300.523 197.141C300.305 196.297 300.039 195.539 299.726 194.867C299.422 194.195 299.101 193.613 298.765 193.121C298.531 192.77 298.285 192.457 298.027 192.184C297.777 191.902 297.531 191.668 297.289 191.48L297.84 189.91C298.262 190.113 298.699 190.406 299.152 190.789C299.613 191.164 300.058 191.617 300.488 192.148C300.933 192.695 301.351 193.312 301.742 194C302.133 194.68 302.472 195.438 302.762 196.273C303.051 197.102 303.285 197.996 303.465 198.957C303.644 199.91 303.734 200.945 303.734 202.062V202.262Z" fill="black" fill-opacity="0.8"/>
<rect x="848" y="136" width="256" height="128" rx="6" fill="#FF9E64"/>
<path d="M897.332 207.312C897.332 206.773 897.504 206.312 897.848 205.93C898.199 205.547 898.703 205.355 899.36 205.355C900 205.355 900.5 205.547 900.86 205.93C901.219 206.305 901.399 206.766 901.399 207.312C901.399 207.859 901.215 208.316 900.848 208.684C900.488 209.051 899.992 209.234 899.36 209.234C898.719 209.234 898.219 209.051 897.86 208.684C897.508 208.309 897.332 207.852 897.332 207.312ZM916.083 205.566C916.083 205.348 916.032 205.152 915.931 204.98C915.837 204.809 915.677 204.645 915.45 204.488C915.208 204.348 914.892 204.215 914.501 204.09C914.111 203.965 913.622 203.848 913.036 203.738C912.302 203.59 911.63 203.406 911.021 203.188C910.419 202.969 909.9 202.703 909.462 202.391C909.032 202.094 908.697 201.742 908.454 201.336C908.212 200.93 908.091 200.457 908.091 199.918C908.091 199.402 908.212 198.914 908.454 198.453C908.704 197.984 909.06 197.574 909.521 197.223C909.974 196.871 910.521 196.594 911.161 196.391C911.81 196.188 912.529 196.086 913.318 196.086C914.161 196.086 914.919 196.191 915.591 196.402C916.263 196.605 916.833 196.887 917.302 197.246C917.763 197.605 918.118 198.031 918.368 198.523C918.618 199.016 918.743 199.547 918.743 200.117H915.943C915.943 199.883 915.892 199.66 915.79 199.449C915.697 199.23 915.556 199.035 915.368 198.863C915.15 198.66 914.868 198.5 914.525 198.383C914.181 198.258 913.779 198.195 913.318 198.195C912.896 198.195 912.525 198.242 912.204 198.336C911.892 198.422 911.634 198.543 911.431 198.699C911.228 198.84 911.075 199.008 910.974 199.203C910.872 199.391 910.822 199.59 910.822 199.801C910.822 200.02 910.865 200.219 910.95 200.398C911.036 200.57 911.189 200.723 911.407 200.855C911.611 200.996 911.892 201.125 912.251 201.242C912.618 201.359 913.079 201.465 913.634 201.559C914.407 201.699 915.115 201.871 915.755 202.074C916.396 202.277 916.943 202.527 917.396 202.824C917.849 203.137 918.2 203.504 918.45 203.926C918.7 204.348 918.825 204.848 918.825 205.426C918.825 205.988 918.693 206.504 918.427 206.973C918.169 207.441 917.802 207.844 917.325 208.18C916.841 208.516 916.263 208.777 915.591 208.965C914.919 209.152 914.173 209.246 913.353 209.246C912.439 209.246 911.626 209.125 910.915 208.883C910.212 208.641 909.622 208.32 909.146 207.922C908.661 207.531 908.294 207.082 908.044 206.574C907.794 206.066 907.669 205.551 907.669 205.027H910.388C910.411 205.418 910.513 205.75 910.693 206.023C910.88 206.289 911.115 206.504 911.396 206.668C911.669 206.84 911.982 206.965 912.333 207.043C912.685 207.113 913.04 207.148 913.4 207.148C913.884 207.148 914.306 207.098 914.665 206.996C915.032 206.895 915.325 206.758 915.544 206.586C915.724 206.445 915.857 206.293 915.943 206.129C916.036 205.957 916.083 205.77 916.083 205.566ZM921.241 202.543C921.241 201.621 921.373 200.77 921.639 199.988C921.905 199.199 922.291 198.516 922.799 197.938C923.299 197.359 923.912 196.906 924.639 196.578C925.366 196.25 926.194 196.086 927.123 196.086C928.053 196.086 928.881 196.25 929.608 196.578C930.342 196.906 930.963 197.359 931.471 197.938C931.971 198.516 932.354 199.199 932.619 199.988C932.885 200.77 933.018 201.621 933.018 202.543V202.789C933.018 203.719 932.885 204.574 932.619 205.355C932.354 206.137 931.971 206.816 931.471 207.395C930.971 207.973 930.354 208.426 929.619 208.754C928.893 209.082 928.069 209.246 927.147 209.246C926.217 209.246 925.385 209.082 924.651 208.754C923.916 208.426 923.299 207.973 922.799 207.395C922.291 206.816 921.905 206.137 921.639 205.355C921.373 204.574 921.241 203.719 921.241 202.789V202.543ZM924.041 202.789C924.041 203.359 924.1 203.898 924.217 204.406C924.342 204.914 924.534 205.359 924.791 205.742C925.041 206.125 925.362 206.43 925.752 206.656C926.143 206.875 926.608 206.984 927.147 206.984C927.67 206.984 928.127 206.875 928.518 206.656C928.909 206.43 929.229 206.125 929.479 205.742C929.729 205.359 929.912 204.914 930.03 204.406C930.155 203.898 930.217 203.359 930.217 202.789V202.543C930.217 201.988 930.155 201.457 930.03 200.949C929.905 200.441 929.721 199.996 929.479 199.613C929.221 199.23 928.897 198.926 928.506 198.699C928.123 198.473 927.662 198.359 927.123 198.359C926.592 198.359 926.131 198.473 925.741 198.699C925.358 198.926 925.041 199.23 924.791 199.613C924.534 199.996 924.342 200.441 924.217 200.949C924.1 201.457 924.041 201.988 924.041 202.543V202.789ZM937.308 196.32L937.39 197.715C937.632 197.207 937.964 196.809 938.386 196.52C938.816 196.23 939.331 196.086 939.933 196.086C940.245 196.086 940.527 196.121 940.777 196.191C941.027 196.262 941.242 196.371 941.421 196.52C941.562 196.629 941.687 196.762 941.796 196.918C941.906 197.066 941.999 197.238 942.077 197.434C942.187 197.254 942.312 197.086 942.452 196.93C942.593 196.773 942.745 196.641 942.91 196.531C943.12 196.391 943.355 196.281 943.613 196.203C943.878 196.125 944.167 196.086 944.48 196.086C944.886 196.086 945.257 196.156 945.593 196.297C945.937 196.43 946.234 196.637 946.484 196.918C946.734 197.215 946.925 197.602 947.058 198.078C947.199 198.547 947.269 199.113 947.269 199.777V209H944.691V199.754C944.691 199.504 944.663 199.293 944.609 199.121C944.554 198.941 944.476 198.797 944.374 198.688C944.273 198.586 944.148 198.512 943.999 198.465C943.859 198.418 943.702 198.395 943.531 198.395C943.351 198.395 943.195 198.418 943.062 198.465C942.929 198.512 942.812 198.578 942.71 198.664C942.617 198.742 942.538 198.836 942.476 198.945C942.413 199.047 942.367 199.164 942.335 199.297C942.335 199.328 942.335 199.367 942.335 199.414C942.335 199.453 942.335 199.512 942.335 199.59V209H939.804V199.742C939.804 199.492 939.777 199.281 939.722 199.109C939.675 198.93 939.601 198.789 939.499 198.688C939.398 198.586 939.277 198.512 939.136 198.465C939.003 198.418 938.851 198.395 938.679 198.395C938.492 198.395 938.324 198.422 938.175 198.477C938.035 198.523 937.913 198.598 937.812 198.699C937.734 198.77 937.663 198.852 937.601 198.945C937.546 199.039 937.495 199.145 937.449 199.262V209H934.87V196.32H937.308ZM955.59 209.234C954.653 209.234 953.793 209.078 953.012 208.766C952.239 208.453 951.575 208.02 951.02 207.465C950.465 206.918 950.036 206.273 949.731 205.531C949.434 204.781 949.286 203.973 949.286 203.105V202.625C949.286 201.633 949.442 200.734 949.754 199.93C950.067 199.125 950.497 198.438 951.043 197.867C951.59 197.297 952.223 196.859 952.942 196.555C953.668 196.242 954.442 196.086 955.262 196.086C956.176 196.086 956.985 196.242 957.688 196.555C958.391 196.859 958.981 197.285 959.457 197.832C959.934 198.387 960.293 199.047 960.536 199.812C960.778 200.578 960.899 201.414 960.899 202.32V203.527H952.11V203.586C952.196 204.141 952.329 204.605 952.508 204.98C952.688 205.355 952.934 205.691 953.247 205.988C953.559 206.301 953.926 206.543 954.348 206.715C954.778 206.887 955.247 206.973 955.754 206.973C956.45 206.973 957.098 206.84 957.7 206.574C958.301 206.301 958.797 205.914 959.188 205.414L960.688 206.867C960.266 207.477 959.618 208.023 958.743 208.508C957.875 208.992 956.825 209.234 955.59 209.234ZM955.25 198.359C954.852 198.359 954.481 198.434 954.137 198.582C953.801 198.723 953.5 198.926 953.235 199.191C952.969 199.465 952.747 199.793 952.567 200.176C952.387 200.559 952.254 200.992 952.168 201.477H958.133V201.289C958.133 200.922 958.067 200.559 957.934 200.199C957.801 199.832 957.614 199.512 957.372 199.238C957.137 198.973 956.84 198.762 956.481 198.605C956.129 198.441 955.719 198.359 955.25 198.359ZM965.916 202.062C965.916 200.961 966.001 199.922 966.173 198.945C966.345 197.961 966.576 197.051 966.865 196.215C967.162 195.395 967.501 194.641 967.884 193.953C968.275 193.266 968.685 192.656 969.115 192.125C969.537 191.594 969.97 191.145 970.416 190.777C970.861 190.402 971.291 190.113 971.705 189.91L972.267 191.539C972.017 191.727 971.767 191.953 971.517 192.219C971.267 192.484 971.021 192.785 970.779 193.121C970.443 193.598 970.126 194.156 969.83 194.797C969.541 195.438 969.291 196.137 969.08 196.895C968.884 197.605 968.728 198.391 968.611 199.25C968.501 200.109 968.447 201.039 968.447 202.039V202.285C968.447 203.262 968.501 204.172 968.611 205.016C968.72 205.852 968.849 206.562 968.998 207.148C969.185 207.852 969.4 208.504 969.642 209.105C969.892 209.707 970.154 210.238 970.427 210.699C970.716 211.168 971.017 211.582 971.33 211.941C971.642 212.301 971.955 212.602 972.267 212.844L971.705 214.414C971.291 214.211 970.861 213.922 970.416 213.547C969.97 213.18 969.533 212.73 969.103 212.199C968.673 211.668 968.263 211.059 967.873 210.371C967.49 209.691 967.154 208.934 966.865 208.098C966.576 207.27 966.345 206.371 966.173 205.402C966.001 204.426 965.916 203.379 965.916 202.262V202.062ZM981.737 209L976.745 196.32H979.651L982.792 205.52L982.979 206.363L983.167 205.52L986.272 196.32H989.178L984.21 209H981.737ZM999.644 209C999.558 208.844 999.488 208.656 999.433 208.438C999.386 208.211 999.343 207.977 999.304 207.734C999.109 207.938 998.886 208.133 998.636 208.32C998.394 208.5 998.121 208.656 997.816 208.789C997.511 208.93 997.183 209.039 996.832 209.117C996.48 209.195 996.101 209.234 995.695 209.234C995.039 209.234 994.437 209.141 993.89 208.953C993.351 208.758 992.89 208.492 992.507 208.156C992.117 207.828 991.812 207.434 991.593 206.973C991.382 206.504 991.277 206 991.277 205.461C991.277 204.766 991.414 204.152 991.687 203.621C991.968 203.082 992.375 202.637 992.906 202.285C993.398 201.957 994.004 201.707 994.722 201.535C995.449 201.363 996.269 201.277 997.183 201.277H999.222V200.422C999.222 200.094 999.164 199.797 999.046 199.531C998.937 199.266 998.777 199.035 998.566 198.84C998.339 198.645 998.062 198.496 997.734 198.395C997.414 198.285 997.043 198.23 996.621 198.23C996.238 198.23 995.902 198.277 995.613 198.371C995.332 198.465 995.097 198.594 994.91 198.758C994.722 198.906 994.582 199.09 994.488 199.309C994.402 199.52 994.359 199.746 994.359 199.988H991.546C991.554 199.48 991.675 198.992 991.91 198.523C992.144 198.055 992.488 197.641 992.941 197.281C993.379 196.914 993.918 196.625 994.558 196.414C995.207 196.195 995.945 196.086 996.773 196.086C997.515 196.086 998.207 196.18 998.847 196.367C999.496 196.547 1000.05 196.816 1000.52 197.176C1000.99 197.535 1001.36 197.992 1001.62 198.547C1001.89 199.094 1002.02 199.727 1002.02 200.445V206.082C1002.02 206.652 1002.06 207.168 1002.14 207.629C1002.23 208.082 1002.35 208.473 1002.5 208.801V209H999.644ZM996.234 206.984C996.601 206.984 996.941 206.938 997.254 206.844C997.574 206.75 997.863 206.629 998.121 206.48C998.379 206.332 998.601 206.164 998.789 205.977C998.976 205.789 999.121 205.594 999.222 205.391V203.047H997.418C996.808 203.047 996.281 203.105 995.836 203.223C995.39 203.332 995.035 203.492 994.769 203.703C994.535 203.883 994.359 204.098 994.242 204.348C994.132 204.598 994.078 204.879 994.078 205.191C994.078 205.449 994.125 205.691 994.218 205.918C994.312 206.137 994.449 206.324 994.629 206.48C994.808 206.637 995.031 206.762 995.296 206.855C995.562 206.941 995.875 206.984 996.234 206.984ZM1006.04 191H1012.88V206.68H1016.72V209H1006.04V206.68H1010.05V193.332H1006.04V191ZM1027.77 209L1027.61 207.23C1027.18 207.863 1026.65 208.359 1026.04 208.719C1025.42 209.07 1024.73 209.246 1023.96 209.246C1023.31 209.246 1022.7 209.145 1022.16 208.941C1021.62 208.73 1021.15 208.406 1020.76 207.969C1020.38 207.531 1020.08 206.973 1019.87 206.293C1019.66 205.605 1019.56 204.785 1019.56 203.832V196.32H1022.36V203.855C1022.36 204.441 1022.4 204.934 1022.49 205.332C1022.57 205.723 1022.71 206.035 1022.9 206.27C1023.08 206.512 1023.32 206.684 1023.61 206.785C1023.9 206.887 1024.24 206.938 1024.63 206.938C1025.04 206.938 1025.4 206.895 1025.72 206.809C1026.04 206.715 1026.32 206.59 1026.56 206.434C1026.77 206.293 1026.95 206.129 1027.1 205.941C1027.26 205.746 1027.39 205.531 1027.5 205.297V196.32H1030.31V209H1027.77ZM1039.34 209.234C1038.4 209.234 1037.54 209.078 1036.76 208.766C1035.99 208.453 1035.32 208.02 1034.77 207.465C1034.21 206.918 1033.78 206.273 1033.48 205.531C1033.18 204.781 1033.03 203.973 1033.03 203.105V202.625C1033.03 201.633 1033.19 200.734 1033.5 199.93C1033.82 199.125 1034.24 198.438 1034.79 197.867C1035.34 197.297 1035.97 196.859 1036.69 196.555C1037.42 196.242 1038.19 196.086 1039.01 196.086C1039.92 196.086 1040.73 196.242 1041.44 196.555C1042.14 196.859 1042.73 197.285 1043.21 197.832C1043.68 198.387 1044.04 199.047 1044.28 199.812C1044.53 200.578 1044.65 201.414 1044.65 202.32V203.527H1035.86V203.586C1035.94 204.141 1036.08 204.605 1036.26 204.98C1036.44 205.355 1036.68 205.691 1036.99 205.988C1037.31 206.301 1037.67 206.543 1038.1 206.715C1038.53 206.887 1038.99 206.973 1039.5 206.973C1040.2 206.973 1040.85 206.84 1041.45 206.574C1042.05 206.301 1042.55 205.914 1042.94 205.414L1044.44 206.867C1044.01 207.477 1043.37 208.023 1042.49 208.508C1041.62 208.992 1040.57 209.234 1039.34 209.234ZM1039 198.359C1038.6 198.359 1038.23 198.434 1037.89 198.582C1037.55 198.723 1037.25 198.926 1036.98 199.191C1036.72 199.465 1036.49 199.793 1036.32 200.176C1036.14 200.559 1036 200.992 1035.92 201.477H1041.88V201.289C1041.88 200.922 1041.82 200.559 1041.68 200.199C1041.55 199.832 1041.36 199.512 1041.12 199.238C1040.89 198.973 1040.59 198.762 1040.23 198.605C1039.88 198.441 1039.47 198.359 1039 198.359ZM1055.73 202.262C1055.73 203.355 1055.64 204.387 1055.46 205.355C1055.29 206.324 1055.06 207.223 1054.76 208.051C1054.46 208.887 1054.12 209.648 1053.73 210.336C1053.34 211.023 1052.93 211.633 1052.49 212.164C1052.05 212.711 1051.61 213.172 1051.15 213.547C1050.7 213.922 1050.26 214.211 1049.84 214.414L1049.29 212.844C1049.59 212.625 1049.88 212.348 1050.18 212.012C1050.48 211.676 1050.77 211.289 1051.05 210.852C1051.34 210.367 1051.62 209.816 1051.88 209.199C1052.14 208.59 1052.37 207.914 1052.55 207.172C1052.72 206.484 1052.85 205.734 1052.95 204.922C1053.05 204.109 1053.1 203.23 1053.1 202.285V202.039C1053.1 201.062 1053.04 200.164 1052.93 199.344C1052.82 198.523 1052.69 197.789 1052.52 197.141C1052.3 196.297 1052.04 195.539 1051.73 194.867C1051.42 194.195 1051.1 193.613 1050.77 193.121C1050.53 192.77 1050.28 192.457 1050.03 192.184C1049.78 191.902 1049.53 191.668 1049.29 191.48L1049.84 189.91C1050.26 190.113 1050.7 190.406 1051.15 190.789C1051.61 191.164 1052.06 191.617 1052.49 192.148C1052.93 192.695 1053.35 193.312 1053.74 194C1054.13 194.68 1054.47 195.438 1054.76 196.273C1055.05 197.102 1055.28 197.996 1055.46 198.957C1055.64 199.91 1055.73 200.945 1055.73 202.062V202.262Z" fill="black" fill-opacity="0.8"/>
<rect x="1584" y="136" width="256" height="128" rx="6" fill="#9ECE6A"/>
<path d="M1633.33 207.312C1633.33 206.773 1633.5 206.312 1633.85 205.93C1634.2 205.547 1634.7 205.355 1635.36 205.355C1636 205.355 1636.5 205.547 1636.86 205.93C1637.22 206.305 1637.4 206.766 1637.4 207.312C1637.4 207.859 1637.22 208.316 1636.85 208.684C1636.49 209.051 1635.99 209.234 1635.36 209.234C1634.72 209.234 1634.22 209.051 1633.86 208.684C1633.51 208.309 1633.33 207.852 1633.33 207.312ZM1652.08 205.566C1652.08 205.348 1652.03 205.152 1651.93 204.98C1651.84 204.809 1651.68 204.645 1651.45 204.488C1651.21 204.348 1650.89 204.215 1650.5 204.09C1650.11 203.965 1649.62 203.848 1649.04 203.738C1648.3 203.59 1647.63 203.406 1647.02 203.188C1646.42 202.969 1645.9 202.703 1645.46 202.391C1645.03 202.094 1644.7 201.742 1644.45 201.336C1644.21 200.93 1644.09 200.457 1644.09 199.918C1644.09 199.402 1644.21 198.914 1644.45 198.453C1644.7 197.984 1645.06 197.574 1645.52 197.223C1645.97 196.871 1646.52 196.594 1647.16 196.391C1647.81 196.188 1648.53 196.086 1649.32 196.086C1650.16 196.086 1650.92 196.191 1651.59 196.402C1652.26 196.605 1652.83 196.887 1653.3 197.246C1653.76 197.605 1654.12 198.031 1654.37 198.523C1654.62 199.016 1654.74 199.547 1654.74 200.117H1651.94C1651.94 199.883 1651.89 199.66 1651.79 199.449C1651.7 199.23 1651.56 199.035 1651.37 198.863C1651.15 198.66 1650.87 198.5 1650.52 198.383C1650.18 198.258 1649.78 198.195 1649.32 198.195C1648.9 198.195 1648.52 198.242 1648.2 198.336C1647.89 198.422 1647.63 198.543 1647.43 198.699C1647.23 198.84 1647.08 199.008 1646.97 199.203C1646.87 199.391 1646.82 199.59 1646.82 199.801C1646.82 200.02 1646.86 200.219 1646.95 200.398C1647.04 200.57 1647.19 200.723 1647.41 200.855C1647.61 200.996 1647.89 201.125 1648.25 201.242C1648.62 201.359 1649.08 201.465 1649.63 201.559C1650.41 201.699 1651.11 201.871 1651.76 202.074C1652.4 202.277 1652.94 202.527 1653.4 202.824C1653.85 203.137 1654.2 203.504 1654.45 203.926C1654.7 204.348 1654.83 204.848 1654.83 205.426C1654.83 205.988 1654.69 206.504 1654.43 206.973C1654.17 207.441 1653.8 207.844 1653.33 208.18C1652.84 208.516 1652.26 208.777 1651.59 208.965C1650.92 209.152 1650.17 209.246 1649.35 209.246C1648.44 209.246 1647.63 209.125 1646.92 208.883C1646.21 208.641 1645.62 208.32 1645.15 207.922C1644.66 207.531 1644.29 207.082 1644.04 206.574C1643.79 206.066 1643.67 205.551 1643.67 205.027H1646.39C1646.41 205.418 1646.51 205.75 1646.69 206.023C1646.88 206.289 1647.11 206.504 1647.4 206.668C1647.67 206.84 1647.98 206.965 1648.33 207.043C1648.68 207.113 1649.04 207.148 1649.4 207.148C1649.88 207.148 1650.31 207.098 1650.67 206.996C1651.03 206.895 1651.33 206.758 1651.54 206.586C1651.72 206.445 1651.86 206.293 1651.94 206.129C1652.04 205.957 1652.08 205.77 1652.08 205.566ZM1657.24 202.543C1657.24 201.621 1657.37 200.77 1657.64 199.988C1657.9 199.199 1658.29 198.516 1658.8 197.938C1659.3 197.359 1659.91 196.906 1660.64 196.578C1661.37 196.25 1662.19 196.086 1663.12 196.086C1664.05 196.086 1664.88 196.25 1665.61 196.578C1666.34 196.906 1666.96 197.359 1667.47 197.938C1667.97 198.516 1668.35 199.199 1668.62 199.988C1668.89 200.77 1669.02 201.621 1669.02 202.543V202.789C1669.02 203.719 1668.89 204.574 1668.62 205.355C1668.35 206.137 1667.97 206.816 1667.47 207.395C1666.97 207.973 1666.35 208.426 1665.62 208.754C1664.89 209.082 1664.07 209.246 1663.15 209.246C1662.22 209.246 1661.39 209.082 1660.65 208.754C1659.92 208.426 1659.3 207.973 1658.8 207.395C1658.29 206.816 1657.9 206.137 1657.64 205.355C1657.37 204.574 1657.24 203.719 1657.24 202.789V202.543ZM1660.04 202.789C1660.04 203.359 1660.1 203.898 1660.22 204.406C1660.34 204.914 1660.53 205.359 1660.79 205.742C1661.04 206.125 1661.36 206.43 1661.75 206.656C1662.14 206.875 1662.61 206.984 1663.15 206.984C1663.67 206.984 1664.13 206.875 1664.52 206.656C1664.91 206.43 1665.23 206.125 1665.48 205.742C1665.73 205.359 1665.91 204.914 1666.03 204.406C1666.15 203.898 1666.22 203.359 1666.22 202.789V202.543C1666.22 201.988 1666.15 201.457 1666.03 200.949C1665.9 200.441 1665.72 199.996 1665.48 199.613C1665.22 199.23 1664.9 198.926 1664.51 198.699C1664.12 198.473 1663.66 198.359 1663.12 198.359C1662.59 198.359 1662.13 198.473 1661.74 198.699C1661.36 198.926 1661.04 199.23 1660.79 199.613C1660.53 199.996 1660.34 200.441 1660.22 200.949C1660.1 201.457 1660.04 201.988 1660.04 202.543V202.789ZM1673.31 196.32L1673.39 197.715C1673.63 197.207 1673.96 196.809 1674.39 196.52C1674.82 196.23 1675.33 196.086 1675.93 196.086C1676.25 196.086 1676.53 196.121 1676.78 196.191C1677.03 196.262 1677.24 196.371 1677.42 196.52C1677.56 196.629 1677.69 196.762 1677.8 196.918C1677.91 197.066 1678 197.238 1678.08 197.434C1678.19 197.254 1678.31 197.086 1678.45 196.93C1678.59 196.773 1678.75 196.641 1678.91 196.531C1679.12 196.391 1679.35 196.281 1679.61 196.203C1679.88 196.125 1680.17 196.086 1680.48 196.086C1680.89 196.086 1681.26 196.156 1681.59 196.297C1681.94 196.43 1682.23 196.637 1682.48 196.918C1682.73 197.215 1682.93 197.602 1683.06 198.078C1683.2 198.547 1683.27 199.113 1683.27 199.777V209H1680.69V199.754C1680.69 199.504 1680.66 199.293 1680.61 199.121C1680.55 198.941 1680.48 198.797 1680.37 198.688C1680.27 198.586 1680.15 198.512 1680 198.465C1679.86 198.418 1679.7 198.395 1679.53 198.395C1679.35 198.395 1679.19 198.418 1679.06 198.465C1678.93 198.512 1678.81 198.578 1678.71 198.664C1678.62 198.742 1678.54 198.836 1678.48 198.945C1678.41 199.047 1678.37 199.164 1678.34 199.297C1678.34 199.328 1678.34 199.367 1678.34 199.414C1678.34 199.453 1678.34 199.512 1678.34 199.59V209H1675.8V199.742C1675.8 199.492 1675.78 199.281 1675.72 199.109C1675.68 198.93 1675.6 198.789 1675.5 198.688C1675.4 198.586 1675.28 198.512 1675.14 198.465C1675 198.418 1674.85 198.395 1674.68 198.395C1674.49 198.395 1674.32 198.422 1674.18 198.477C1674.03 198.523 1673.91 198.598 1673.81 198.699C1673.73 198.77 1673.66 198.852 1673.6 198.945C1673.55 199.039 1673.5 199.145 1673.45 199.262V209H1670.87V196.32H1673.31ZM1691.59 209.234C1690.65 209.234 1689.79 209.078 1689.01 208.766C1688.24 208.453 1687.57 208.02 1687.02 207.465C1686.47 206.918 1686.04 206.273 1685.73 205.531C1685.43 204.781 1685.29 203.973 1685.29 203.105V202.625C1685.29 201.633 1685.44 200.734 1685.75 199.93C1686.07 199.125 1686.5 198.438 1687.04 197.867C1687.59 197.297 1688.22 196.859 1688.94 196.555C1689.67 196.242 1690.44 196.086 1691.26 196.086C1692.18 196.086 1692.98 196.242 1693.69 196.555C1694.39 196.859 1694.98 197.285 1695.46 197.832C1695.93 198.387 1696.29 199.047 1696.54 199.812C1696.78 200.578 1696.9 201.414 1696.9 202.32V203.527H1688.11V203.586C1688.2 204.141 1688.33 204.605 1688.51 204.98C1688.69 205.355 1688.93 205.691 1689.25 205.988C1689.56 206.301 1689.93 206.543 1690.35 206.715C1690.78 206.887 1691.25 206.973 1691.75 206.973C1692.45 206.973 1693.1 206.84 1693.7 206.574C1694.3 206.301 1694.8 205.914 1695.19 205.414L1696.69 206.867C1696.27 207.477 1695.62 208.023 1694.74 208.508C1693.88 208.992 1692.82 209.234 1691.59 209.234ZM1691.25 198.359C1690.85 198.359 1690.48 198.434 1690.14 198.582C1689.8 198.723 1689.5 198.926 1689.23 199.191C1688.97 199.465 1688.75 199.793 1688.57 200.176C1688.39 200.559 1688.25 200.992 1688.17 201.477H1694.13V201.289C1694.13 200.922 1694.07 200.559 1693.93 200.199C1693.8 199.832 1693.61 199.512 1693.37 199.238C1693.14 198.973 1692.84 198.762 1692.48 198.605C1692.13 198.441 1691.72 198.359 1691.25 198.359ZM1701.92 202.062C1701.92 200.961 1702 199.922 1702.17 198.945C1702.35 197.961 1702.58 197.051 1702.86 196.215C1703.16 195.395 1703.5 194.641 1703.88 193.953C1704.27 193.266 1704.69 192.656 1705.11 192.125C1705.54 191.594 1705.97 191.145 1706.42 190.777C1706.86 190.402 1707.29 190.113 1707.7 189.91L1708.27 191.539C1708.02 191.727 1707.77 191.953 1707.52 192.219C1707.27 192.484 1707.02 192.785 1706.78 193.121C1706.44 193.598 1706.13 194.156 1705.83 194.797C1705.54 195.438 1705.29 196.137 1705.08 196.895C1704.88 197.605 1704.73 198.391 1704.61 199.25C1704.5 200.109 1704.45 201.039 1704.45 202.039V202.285C1704.45 203.262 1704.5 204.172 1704.61 205.016C1704.72 205.852 1704.85 206.562 1705 207.148C1705.19 207.852 1705.4 208.504 1705.64 209.105C1705.89 209.707 1706.15 210.238 1706.43 210.699C1706.72 211.168 1707.02 211.582 1707.33 211.941C1707.64 212.301 1707.95 212.602 1708.27 212.844L1707.7 214.414C1707.29 214.211 1706.86 213.922 1706.42 213.547C1705.97 213.18 1705.53 212.73 1705.1 212.199C1704.67 211.668 1704.26 211.059 1703.87 210.371C1703.49 209.691 1703.15 208.934 1702.86 208.098C1702.58 207.27 1702.35 206.371 1702.17 205.402C1702 204.426 1701.92 203.379 1701.92 202.262V202.062ZM1717.74 209L1712.74 196.32H1715.65L1718.79 205.52L1718.98 206.363L1719.17 205.52L1722.27 196.32H1725.18L1720.21 209H1717.74ZM1735.64 209C1735.56 208.844 1735.49 208.656 1735.43 208.438C1735.39 208.211 1735.34 207.977 1735.3 207.734C1735.11 207.938 1734.89 208.133 1734.64 208.32C1734.39 208.5 1734.12 208.656 1733.82 208.789C1733.51 208.93 1733.18 209.039 1732.83 209.117C1732.48 209.195 1732.1 209.234 1731.69 209.234C1731.04 209.234 1730.44 209.141 1729.89 208.953C1729.35 208.758 1728.89 208.492 1728.51 208.156C1728.12 207.828 1727.81 207.434 1727.59 206.973C1727.38 206.504 1727.28 206 1727.28 205.461C1727.28 204.766 1727.41 204.152 1727.69 203.621C1727.97 203.082 1728.37 202.637 1728.91 202.285C1729.4 201.957 1730 201.707 1730.72 201.535C1731.45 201.363 1732.27 201.277 1733.18 201.277H1735.22V200.422C1735.22 200.094 1735.16 199.797 1735.05 199.531C1734.94 199.266 1734.78 199.035 1734.57 198.84C1734.34 198.645 1734.06 198.496 1733.73 198.395C1733.41 198.285 1733.04 198.23 1732.62 198.23C1732.24 198.23 1731.9 198.277 1731.61 198.371C1731.33 198.465 1731.1 198.594 1730.91 198.758C1730.72 198.906 1730.58 199.09 1730.49 199.309C1730.4 199.52 1730.36 199.746 1730.36 199.988H1727.55C1727.55 199.48 1727.68 198.992 1727.91 198.523C1728.14 198.055 1728.49 197.641 1728.94 197.281C1729.38 196.914 1729.92 196.625 1730.56 196.414C1731.21 196.195 1731.94 196.086 1732.77 196.086C1733.52 196.086 1734.21 196.18 1734.85 196.367C1735.5 196.547 1736.05 196.816 1736.52 197.176C1736.99 197.535 1737.36 197.992 1737.62 198.547C1737.89 199.094 1738.02 199.727 1738.02 200.445V206.082C1738.02 206.652 1738.06 207.168 1738.14 207.629C1738.23 208.082 1738.35 208.473 1738.5 208.801V209H1735.64ZM1732.23 206.984C1732.6 206.984 1732.94 206.938 1733.25 206.844C1733.57 206.75 1733.86 206.629 1734.12 206.48C1734.38 206.332 1734.6 206.164 1734.79 205.977C1734.98 205.789 1735.12 205.594 1735.22 205.391V203.047H1733.42C1732.81 203.047 1732.28 203.105 1731.84 203.223C1731.39 203.332 1731.03 203.492 1730.77 203.703C1730.53 203.883 1730.36 204.098 1730.24 204.348C1730.13 204.598 1730.08 204.879 1730.08 205.191C1730.08 205.449 1730.12 205.691 1730.22 205.918C1730.31 206.137 1730.45 206.324 1730.63 206.48C1730.81 206.637 1731.03 206.762 1731.3 206.855C1731.56 206.941 1731.87 206.984 1732.23 206.984ZM1742.04 191H1748.88V206.68H1752.72V209H1742.04V206.68H1746.05V193.332H1742.04V191ZM1763.77 209L1763.61 207.23C1763.18 207.863 1762.65 208.359 1762.04 208.719C1761.42 209.07 1760.73 209.246 1759.96 209.246C1759.31 209.246 1758.7 209.145 1758.16 208.941C1757.62 208.73 1757.15 208.406 1756.76 207.969C1756.38 207.531 1756.08 206.973 1755.87 206.293C1755.66 205.605 1755.56 204.785 1755.56 203.832V196.32H1758.36V203.855C1758.36 204.441 1758.4 204.934 1758.49 205.332C1758.57 205.723 1758.71 206.035 1758.9 206.27C1759.08 206.512 1759.32 206.684 1759.61 206.785C1759.9 206.887 1760.24 206.938 1760.63 206.938C1761.04 206.938 1761.4 206.895 1761.72 206.809C1762.04 206.715 1762.32 206.59 1762.56 206.434C1762.77 206.293 1762.95 206.129 1763.1 205.941C1763.26 205.746 1763.39 205.531 1763.5 205.297V196.32H1766.31V209H1763.77ZM1775.34 209.234C1774.4 209.234 1773.54 209.078 1772.76 208.766C1771.99 208.453 1771.32 208.02 1770.77 207.465C1770.21 206.918 1769.78 206.273 1769.48 205.531C1769.18 204.781 1769.03 203.973 1769.03 203.105V202.625C1769.03 201.633 1769.19 200.734 1769.5 199.93C1769.82 199.125 1770.24 198.438 1770.79 197.867C1771.34 197.297 1771.97 196.859 1772.69 196.555C1773.42 196.242 1774.19 196.086 1775.01 196.086C1775.92 196.086 1776.73 196.242 1777.44 196.555C1778.14 196.859 1778.73 197.285 1779.21 197.832C1779.68 198.387 1780.04 199.047 1780.28 199.812C1780.53 200.578 1780.65 201.414 1780.65 202.32V203.527H1771.86V203.586C1771.94 204.141 1772.08 204.605 1772.26 204.98C1772.44 205.355 1772.68 205.691 1772.99 205.988C1773.31 206.301 1773.67 206.543 1774.1 206.715C1774.53 206.887 1774.99 206.973 1775.5 206.973C1776.2 206.973 1776.85 206.84 1777.45 206.574C1778.05 206.301 1778.55 205.914 1778.94 205.414L1780.44 206.867C1780.01 207.477 1779.37 208.023 1778.49 208.508C1777.62 208.992 1776.57 209.234 1775.34 209.234ZM1775 198.359C1774.6 198.359 1774.23 198.434 1773.89 198.582C1773.55 198.723 1773.25 198.926 1772.98 199.191C1772.72 199.465 1772.49 199.793 1772.32 200.176C1772.14 200.559 1772 200.992 1771.92 201.477H1777.88V201.289C1777.88 200.922 1777.82 200.559 1777.68 200.199C1777.55 199.832 1777.36 199.512 1777.12 199.238C1776.89 198.973 1776.59 198.762 1776.23 198.605C1775.88 198.441 1775.47 198.359 1775 198.359ZM1791.73 202.262C1791.73 203.355 1791.64 204.387 1791.46 205.355C1791.29 206.324 1791.06 207.223 1790.76 208.051C1790.46 208.887 1790.12 209.648 1789.73 210.336C1789.34 211.023 1788.93 211.633 1788.49 212.164C1788.05 212.711 1787.61 213.172 1787.15 213.547C1786.7 213.922 1786.26 214.211 1785.84 214.414L1785.29 212.844C1785.59 212.625 1785.88 212.348 1786.18 212.012C1786.48 211.676 1786.77 211.289 1787.05 210.852C1787.34 210.367 1787.62 209.816 1787.88 209.199C1788.14 208.59 1788.37 207.914 1788.55 207.172C1788.72 206.484 1788.85 205.734 1788.95 204.922C1789.05 204.109 1789.1 203.23 1789.1 202.285V202.039C1789.1 201.062 1789.04 200.164 1788.93 199.344C1788.82 198.523 1788.69 197.789 1788.52 197.141C1788.3 196.297 1788.04 195.539 1787.73 194.867C1787.42 194.195 1787.1 193.613 1786.77 193.121C1786.53 192.77 1786.28 192.457 1786.03 192.184C1785.78 191.902 1785.53 191.668 1785.29 191.48L1785.84 189.91C1786.26 190.113 1786.7 190.406 1787.15 190.789C1787.61 191.164 1788.06 191.617 1788.49 192.148C1788.93 192.695 1789.35 193.312 1789.74 194C1790.13 194.68 1790.47 195.438 1790.76 196.273C1791.05 197.102 1791.28 197.996 1791.46 198.957C1791.64 199.91 1791.73 200.945 1791.73 202.062V202.262Z" fill="black" fill-opacity="0.8"/>
<path d="M604.601 113.056C606.648 111.648 609.352 111.648 611.399 113.056L733.399 195.056C736.867 197.44 736.867 202.56 733.399 204.944L611.399 286.944C609.352 288.352 606.648 288.352 604.601 286.944L482.601 204.944C479.133 202.56 479.133 197.44 482.601 195.056L604.601 113.056Z" fill="#C0CAF5"/>
<path d="M563.923 209V198.418H560.524V196.32H563.923V195.547C563.923 194.719 564.048 193.992 564.298 193.367C564.556 192.734 564.919 192.203 565.388 191.773C565.856 191.352 566.419 191.031 567.075 190.812C567.739 190.594 568.481 190.484 569.302 190.484C569.591 190.484 569.872 190.5 570.145 190.531C570.427 190.555 570.7 190.586 570.966 190.625C571.184 190.656 571.407 190.695 571.634 190.742C571.86 190.781 572.091 190.824 572.325 190.871L572.102 193.109C571.79 193.023 571.434 192.949 571.036 192.887C570.645 192.824 570.2 192.793 569.7 192.793C569.177 192.793 568.723 192.855 568.341 192.98C567.966 193.105 567.657 193.289 567.415 193.531C567.188 193.758 567.016 194.039 566.899 194.375C566.79 194.711 566.735 195.102 566.735 195.547V196.32H571.434V198.418H566.735V209H563.923ZM575.232 191H582.064V206.68H585.908V209H575.232V206.68H579.24V193.332H575.232V191ZM596.749 209C596.663 208.844 596.593 208.656 596.538 208.438C596.491 208.211 596.448 207.977 596.409 207.734C596.214 207.938 595.991 208.133 595.741 208.32C595.499 208.5 595.226 208.656 594.921 208.789C594.616 208.93 594.288 209.039 593.936 209.117C593.585 209.195 593.206 209.234 592.8 209.234C592.144 209.234 591.542 209.141 590.995 208.953C590.456 208.758 589.995 208.492 589.612 208.156C589.222 207.828 588.917 207.434 588.698 206.973C588.487 206.504 588.382 206 588.382 205.461C588.382 204.766 588.519 204.152 588.792 203.621C589.073 203.082 589.479 202.637 590.011 202.285C590.503 201.957 591.108 201.707 591.827 201.535C592.554 201.363 593.374 201.277 594.288 201.277H596.327V200.422C596.327 200.094 596.269 199.797 596.151 199.531C596.042 199.266 595.882 199.035 595.671 198.84C595.444 198.645 595.167 198.496 594.839 198.395C594.519 198.285 594.147 198.23 593.726 198.23C593.343 198.23 593.007 198.277 592.718 198.371C592.436 198.465 592.202 198.594 592.015 198.758C591.827 198.906 591.686 199.09 591.593 199.309C591.507 199.52 591.464 199.746 591.464 199.988H588.651C588.659 199.48 588.78 198.992 589.015 198.523C589.249 198.055 589.593 197.641 590.046 197.281C590.483 196.914 591.022 196.625 591.663 196.414C592.311 196.195 593.05 196.086 593.878 196.086C594.62 196.086 595.311 196.18 595.952 196.367C596.601 196.547 597.159 196.816 597.628 197.176C598.097 197.535 598.464 197.992 598.729 198.547C598.995 199.094 599.128 199.727 599.128 200.445V206.082C599.128 206.652 599.167 207.168 599.245 207.629C599.331 208.082 599.452 208.473 599.608 208.801V209H596.749ZM593.339 206.984C593.706 206.984 594.046 206.938 594.358 206.844C594.679 206.75 594.968 206.629 595.226 206.48C595.483 206.332 595.706 206.164 595.894 205.977C596.081 205.789 596.226 205.594 596.327 205.391V203.047H594.522C593.913 203.047 593.386 203.105 592.94 203.223C592.495 203.332 592.14 203.492 591.874 203.703C591.64 203.883 591.464 204.098 591.347 204.348C591.237 204.598 591.183 204.879 591.183 205.191C591.183 205.449 591.229 205.691 591.323 205.918C591.417 206.137 591.554 206.324 591.733 206.48C591.913 206.637 592.136 206.762 592.401 206.855C592.667 206.941 592.979 206.984 593.339 206.984ZM608.234 193.227V196.32H613.004V198.418H608.234V204.477C608.234 204.945 608.289 205.34 608.398 205.66C608.516 205.973 608.676 206.219 608.879 206.398C609.082 206.586 609.324 206.719 609.605 206.797C609.887 206.875 610.195 206.914 610.531 206.914C610.773 206.914 611.023 206.902 611.281 206.879C611.539 206.855 611.789 206.824 612.031 206.785C612.266 206.754 612.484 206.719 612.688 206.68C612.898 206.633 613.074 206.594 613.215 206.562L613.52 208.496C613.316 208.621 613.07 208.73 612.781 208.824C612.5 208.91 612.195 208.984 611.867 209.047C611.539 209.109 611.195 209.156 610.836 209.188C610.484 209.227 610.133 209.246 609.781 209.246C609.141 209.246 608.551 209.16 608.012 208.988C607.48 208.809 607.023 208.531 606.641 208.156C606.258 207.789 605.957 207.316 605.738 206.738C605.527 206.16 605.422 205.465 605.422 204.652V198.418H602.352V196.32H605.422V193.227H608.234ZM619.837 191.938L621.946 199.238L624.278 191.938H627.782V209H625.134V203.211L625.298 195.594L622.673 203.738H621.208L618.829 195.875L618.981 203.211V209H616.345V191.938H619.837ZM638.623 209C638.537 208.844 638.467 208.656 638.412 208.438C638.365 208.211 638.322 207.977 638.283 207.734C638.088 207.938 637.865 208.133 637.615 208.32C637.373 208.5 637.1 208.656 636.795 208.789C636.49 208.93 636.162 209.039 635.811 209.117C635.459 209.195 635.08 209.234 634.674 209.234C634.018 209.234 633.416 209.141 632.869 208.953C632.33 208.758 631.869 208.492 631.486 208.156C631.096 207.828 630.791 207.434 630.572 206.973C630.361 206.504 630.256 206 630.256 205.461C630.256 204.766 630.393 204.152 630.666 203.621C630.947 203.082 631.354 202.637 631.885 202.285C632.377 201.957 632.983 201.707 633.701 201.535C634.428 201.363 635.248 201.277 636.162 201.277H638.201V200.422C638.201 200.094 638.143 199.797 638.025 199.531C637.916 199.266 637.756 199.035 637.545 198.84C637.318 198.645 637.041 198.496 636.713 198.395C636.393 198.285 636.022 198.23 635.6 198.23C635.217 198.23 634.881 198.277 634.592 198.371C634.311 198.465 634.076 198.594 633.889 198.758C633.701 198.906 633.561 199.09 633.467 199.309C633.381 199.52 633.338 199.746 633.338 199.988H630.525C630.533 199.48 630.654 198.992 630.889 198.523C631.123 198.055 631.467 197.641 631.92 197.281C632.358 196.914 632.897 196.625 633.537 196.414C634.186 196.195 634.924 196.086 635.752 196.086C636.494 196.086 637.186 196.18 637.826 196.367C638.475 196.547 639.033 196.816 639.502 197.176C639.971 197.535 640.338 197.992 640.604 198.547C640.869 199.094 641.002 199.727 641.002 200.445V206.082C641.002 206.652 641.041 207.168 641.119 207.629C641.205 208.082 641.326 208.473 641.483 208.801V209H638.623ZM635.213 206.984C635.58 206.984 635.92 206.938 636.233 206.844C636.553 206.75 636.842 206.629 637.1 206.48C637.358 206.332 637.58 206.164 637.768 205.977C637.955 205.789 638.1 205.594 638.201 205.391V203.047H636.397C635.787 203.047 635.26 203.105 634.815 203.223C634.369 203.332 634.014 203.492 633.748 203.703C633.514 203.883 633.338 204.098 633.221 204.348C633.111 204.598 633.057 204.879 633.057 205.191C633.057 205.449 633.104 205.691 633.197 205.918C633.291 206.137 633.428 206.324 633.608 206.48C633.787 206.637 634.01 206.762 634.275 206.855C634.541 206.941 634.854 206.984 635.213 206.984ZM644.507 213.875V196.32H647.085L647.191 197.621C647.362 197.41 647.55 197.219 647.753 197.047C647.956 196.875 648.175 196.727 648.409 196.602C648.714 196.438 649.05 196.312 649.417 196.227C649.784 196.133 650.175 196.086 650.589 196.086C651.402 196.086 652.116 196.242 652.734 196.555C653.359 196.867 653.882 197.309 654.304 197.879C654.718 198.449 655.034 199.133 655.253 199.93C655.472 200.719 655.581 201.59 655.581 202.543V202.789C655.581 203.703 655.472 204.555 655.253 205.344C655.042 206.133 654.726 206.812 654.304 207.383C653.882 207.961 653.362 208.414 652.745 208.742C652.128 209.07 651.421 209.234 650.624 209.234C650.171 209.234 649.753 209.188 649.37 209.094C648.995 209 648.648 208.863 648.327 208.684C648.14 208.574 647.96 208.449 647.788 208.309C647.616 208.168 647.456 208.016 647.308 207.852V213.875H644.507ZM652.78 202.543C652.78 201.973 652.722 201.438 652.605 200.938C652.495 200.43 652.323 199.988 652.089 199.613C651.847 199.238 651.538 198.941 651.163 198.723C650.788 198.504 650.339 198.395 649.816 198.395C649.527 198.395 649.257 198.426 649.007 198.488C648.757 198.551 648.534 198.641 648.339 198.758C648.112 198.883 647.913 199.039 647.741 199.227C647.577 199.414 647.433 199.625 647.308 199.859V205.496C647.417 205.715 647.55 205.914 647.706 206.094C647.862 206.273 648.042 206.43 648.245 206.562C648.456 206.688 648.695 206.789 648.96 206.867C649.226 206.938 649.519 206.973 649.839 206.973C650.362 206.973 650.808 206.863 651.175 206.645C651.55 206.418 651.855 206.113 652.089 205.73C652.331 205.34 652.507 204.895 652.616 204.395C652.726 203.887 652.78 203.352 652.78 202.789V202.543Z" fill="black" fill-opacity="0.8"/>
<path d="M358 198C356.895 198 356 198.895 356 200C356 201.105 356.895 202 358 202V198ZM474.914 201.414C475.695 200.633 475.695 199.367 474.914 198.586L462.186 185.858C461.405 185.077 460.139 185.077 459.358 185.858C458.577 186.639 458.577 187.905 459.358 188.686L470.672 200L459.358 211.314C458.577 212.095 458.577 213.361 459.358 214.142C460.139 214.923 461.405 214.923 462.186 214.142L474.914 201.414ZM358 200V202H473.5V200V198H358V200Z" fill="#D9D9D9"/>
<path d="M1340.6 113.056C1342.65 111.648 1345.35 111.648 1347.4 113.056L1469.4 195.056C1472.87 197.44 1472.87 202.56 1469.4 204.944L1347.4 286.944C1345.35 288.352 1342.65 288.352 1340.6 286.944L1218.6 204.944C1215.13 202.56 1215.13 197.44 1218.6 195.056L1340.6 113.056Z" fill="#C0CAF5"/>
<path d="M1299.92 209V198.418H1296.52V196.32H1299.92V195.547C1299.92 194.719 1300.05 193.992 1300.3 193.367C1300.56 192.734 1300.92 192.203 1301.39 191.773C1301.86 191.352 1302.42 191.031 1303.08 190.812C1303.74 190.594 1304.48 190.484 1305.3 190.484C1305.59 190.484 1305.87 190.5 1306.15 190.531C1306.43 190.555 1306.7 190.586 1306.97 190.625C1307.18 190.656 1307.41 190.695 1307.63 190.742C1307.86 190.781 1308.09 190.824 1308.33 190.871L1308.1 193.109C1307.79 193.023 1307.43 192.949 1307.04 192.887C1306.65 192.824 1306.2 192.793 1305.7 192.793C1305.18 192.793 1304.72 192.855 1304.34 192.98C1303.97 193.105 1303.66 193.289 1303.41 193.531C1303.19 193.758 1303.02 194.039 1302.9 194.375C1302.79 194.711 1302.74 195.102 1302.74 195.547V196.32H1307.43V198.418H1302.74V209H1299.92ZM1311.23 191H1318.06V206.68H1321.91V209H1311.23V206.68H1315.24V193.332H1311.23V191ZM1332.75 209C1332.66 208.844 1332.59 208.656 1332.54 208.438C1332.49 208.211 1332.45 207.977 1332.41 207.734C1332.21 207.938 1331.99 208.133 1331.74 208.32C1331.5 208.5 1331.23 208.656 1330.92 208.789C1330.62 208.93 1330.29 209.039 1329.94 209.117C1329.58 209.195 1329.21 209.234 1328.8 209.234C1328.14 209.234 1327.54 209.141 1327 208.953C1326.46 208.758 1326 208.492 1325.61 208.156C1325.22 207.828 1324.92 207.434 1324.7 206.973C1324.49 206.504 1324.38 206 1324.38 205.461C1324.38 204.766 1324.52 204.152 1324.79 203.621C1325.07 203.082 1325.48 202.637 1326.01 202.285C1326.5 201.957 1327.11 201.707 1327.83 201.535C1328.55 201.363 1329.37 201.277 1330.29 201.277H1332.33V200.422C1332.33 200.094 1332.27 199.797 1332.15 199.531C1332.04 199.266 1331.88 199.035 1331.67 198.84C1331.44 198.645 1331.17 198.496 1330.84 198.395C1330.52 198.285 1330.15 198.23 1329.73 198.23C1329.34 198.23 1329.01 198.277 1328.72 198.371C1328.44 198.465 1328.2 198.594 1328.01 198.758C1327.83 198.906 1327.69 199.09 1327.59 199.309C1327.51 199.52 1327.46 199.746 1327.46 199.988H1324.65C1324.66 199.48 1324.78 198.992 1325.01 198.523C1325.25 198.055 1325.59 197.641 1326.05 197.281C1326.48 196.914 1327.02 196.625 1327.66 196.414C1328.31 196.195 1329.05 196.086 1329.88 196.086C1330.62 196.086 1331.31 196.18 1331.95 196.367C1332.6 196.547 1333.16 196.816 1333.63 197.176C1334.1 197.535 1334.46 197.992 1334.73 198.547C1335 199.094 1335.13 199.727 1335.13 200.445V206.082C1335.13 206.652 1335.17 207.168 1335.25 207.629C1335.33 208.082 1335.45 208.473 1335.61 208.801V209H1332.75ZM1329.34 206.984C1329.71 206.984 1330.05 206.938 1330.36 206.844C1330.68 206.75 1330.97 206.629 1331.23 206.48C1331.48 206.332 1331.71 206.164 1331.89 205.977C1332.08 205.789 1332.23 205.594 1332.33 205.391V203.047H1330.52C1329.91 203.047 1329.39 203.105 1328.94 203.223C1328.5 203.332 1328.14 203.492 1327.87 203.703C1327.64 203.883 1327.46 204.098 1327.35 204.348C1327.24 204.598 1327.18 204.879 1327.18 205.191C1327.18 205.449 1327.23 205.691 1327.32 205.918C1327.42 206.137 1327.55 206.324 1327.73 206.48C1327.91 206.637 1328.14 206.762 1328.4 206.855C1328.67 206.941 1328.98 206.984 1329.34 206.984ZM1344.23 193.227V196.32H1349V198.418H1344.23V204.477C1344.23 204.945 1344.29 205.34 1344.4 205.66C1344.52 205.973 1344.68 206.219 1344.88 206.398C1345.08 206.586 1345.32 206.719 1345.61 206.797C1345.89 206.875 1346.2 206.914 1346.53 206.914C1346.77 206.914 1347.02 206.902 1347.28 206.879C1347.54 206.855 1347.79 206.824 1348.03 206.785C1348.27 206.754 1348.48 206.719 1348.69 206.68C1348.9 206.633 1349.07 206.594 1349.21 206.562L1349.52 208.496C1349.32 208.621 1349.07 208.73 1348.78 208.824C1348.5 208.91 1348.2 208.984 1347.87 209.047C1347.54 209.109 1347.2 209.156 1346.84 209.188C1346.48 209.227 1346.13 209.246 1345.78 209.246C1345.14 209.246 1344.55 209.16 1344.01 208.988C1343.48 208.809 1343.02 208.531 1342.64 208.156C1342.26 207.789 1341.96 207.316 1341.74 206.738C1341.53 206.16 1341.42 205.465 1341.42 204.652V198.418H1338.35V196.32H1341.42V193.227H1344.23ZM1355.84 191.938L1357.95 199.238L1360.28 191.938H1363.78V209H1361.13V203.211L1361.3 195.594L1358.67 203.738H1357.21L1354.83 195.875L1354.98 203.211V209H1352.34V191.938H1355.84ZM1374.62 209C1374.54 208.844 1374.47 208.656 1374.41 208.438C1374.37 208.211 1374.32 207.977 1374.28 207.734C1374.09 207.938 1373.87 208.133 1373.62 208.32C1373.37 208.5 1373.1 208.656 1372.8 208.789C1372.49 208.93 1372.16 209.039 1371.81 209.117C1371.46 209.195 1371.08 209.234 1370.67 209.234C1370.02 209.234 1369.42 209.141 1368.87 208.953C1368.33 208.758 1367.87 208.492 1367.49 208.156C1367.1 207.828 1366.79 207.434 1366.57 206.973C1366.36 206.504 1366.26 206 1366.26 205.461C1366.26 204.766 1366.39 204.152 1366.67 203.621C1366.95 203.082 1367.35 202.637 1367.88 202.285C1368.38 201.957 1368.98 201.707 1369.7 201.535C1370.43 201.363 1371.25 201.277 1372.16 201.277H1374.2V200.422C1374.2 200.094 1374.14 199.797 1374.03 199.531C1373.92 199.266 1373.76 199.035 1373.55 198.84C1373.32 198.645 1373.04 198.496 1372.71 198.395C1372.39 198.285 1372.02 198.23 1371.6 198.23C1371.22 198.23 1370.88 198.277 1370.59 198.371C1370.31 198.465 1370.08 198.594 1369.89 198.758C1369.7 198.906 1369.56 199.09 1369.47 199.309C1369.38 199.52 1369.34 199.746 1369.34 199.988H1366.53C1366.53 199.48 1366.65 198.992 1366.89 198.523C1367.12 198.055 1367.47 197.641 1367.92 197.281C1368.36 196.914 1368.9 196.625 1369.54 196.414C1370.19 196.195 1370.92 196.086 1371.75 196.086C1372.49 196.086 1373.19 196.18 1373.83 196.367C1374.47 196.547 1375.03 196.816 1375.5 197.176C1375.97 197.535 1376.34 197.992 1376.6 198.547C1376.87 199.094 1377 199.727 1377 200.445V206.082C1377 206.652 1377.04 207.168 1377.12 207.629C1377.21 208.082 1377.33 208.473 1377.48 208.801V209H1374.62ZM1371.21 206.984C1371.58 206.984 1371.92 206.938 1372.23 206.844C1372.55 206.75 1372.84 206.629 1373.1 206.48C1373.36 206.332 1373.58 206.164 1373.77 205.977C1373.96 205.789 1374.1 205.594 1374.2 205.391V203.047H1372.4C1371.79 203.047 1371.26 203.105 1370.81 203.223C1370.37 203.332 1370.01 203.492 1369.75 203.703C1369.51 203.883 1369.34 204.098 1369.22 204.348C1369.11 204.598 1369.06 204.879 1369.06 205.191C1369.06 205.449 1369.1 205.691 1369.2 205.918C1369.29 206.137 1369.43 206.324 1369.61 206.48C1369.79 206.637 1370.01 206.762 1370.28 206.855C1370.54 206.941 1370.85 206.984 1371.21 206.984ZM1380.51 213.875V196.32H1383.09L1383.19 197.621C1383.36 197.41 1383.55 197.219 1383.75 197.047C1383.96 196.875 1384.17 196.727 1384.41 196.602C1384.71 196.438 1385.05 196.312 1385.42 196.227C1385.78 196.133 1386.17 196.086 1386.59 196.086C1387.4 196.086 1388.12 196.242 1388.73 196.555C1389.36 196.867 1389.88 197.309 1390.3 197.879C1390.72 198.449 1391.03 199.133 1391.25 199.93C1391.47 200.719 1391.58 201.59 1391.58 202.543V202.789C1391.58 203.703 1391.47 204.555 1391.25 205.344C1391.04 206.133 1390.73 206.812 1390.3 207.383C1389.88 207.961 1389.36 208.414 1388.75 208.742C1388.13 209.07 1387.42 209.234 1386.62 209.234C1386.17 209.234 1385.75 209.188 1385.37 209.094C1385 209 1384.65 208.863 1384.33 208.684C1384.14 208.574 1383.96 208.449 1383.79 208.309C1383.62 208.168 1383.46 208.016 1383.31 207.852V213.875H1380.51ZM1388.78 202.543C1388.78 201.973 1388.72 201.438 1388.6 200.938C1388.5 200.43 1388.32 199.988 1388.09 199.613C1387.85 199.238 1387.54 198.941 1387.16 198.723C1386.79 198.504 1386.34 198.395 1385.82 198.395C1385.53 198.395 1385.26 198.426 1385.01 198.488C1384.76 198.551 1384.53 198.641 1384.34 198.758C1384.11 198.883 1383.91 199.039 1383.74 199.227C1383.58 199.414 1383.43 199.625 1383.31 199.859V205.496C1383.42 205.715 1383.55 205.914 1383.71 206.094C1383.86 206.273 1384.04 206.43 1384.25 206.562C1384.46 206.688 1384.69 206.789 1384.96 206.867C1385.23 206.938 1385.52 206.973 1385.84 206.973C1386.36 206.973 1386.81 206.863 1387.17 206.645C1387.55 206.418 1387.85 206.113 1388.09 205.73C1388.33 205.34 1388.51 204.895 1388.62 204.395C1388.73 203.887 1388.78 203.352 1388.78 202.789V202.543Z" fill="black" fill-opacity="0.8"/>
<path d="M1478 198C1476.9 198 1476 198.895 1476 200C1476 201.105 1476.9 202 1478 202V198ZM1578.91 201.414C1579.7 200.633 1579.7 199.367 1578.91 198.586L1566.19 185.858C1565.41 185.077 1564.14 185.077 1563.36 185.858C1562.58 186.639 1562.58 187.905 1563.36 188.686L1574.67 200L1563.36 211.314C1562.58 212.095 1562.58 213.361 1563.36 214.142C1564.14 214.923 1565.41 214.923 1566.19 214.142L1578.91 201.414ZM1478 200V202H1577.5V200V198H1478V200Z" fill="#D9D9D9"/>
<path d="M1110 198C1108.9 198 1108 198.895 1108 200C1108 201.105 1108.9 202 1110 202V198ZM1210.91 201.414C1211.7 200.633 1211.7 199.367 1210.91 198.586L1198.19 185.858C1197.41 185.077 1196.14 185.077 1195.36 185.858C1194.58 186.639 1194.58 187.905 1195.36 188.686L1206.67 200L1195.36 211.314C1194.58 212.095 1194.58 213.361 1195.36 214.142C1196.14 214.923 1197.41 214.923 1198.19 214.142L1210.91 201.414ZM1110 200V202H1209.5V200V198H1110V200Z" fill="#D9D9D9"/>
<path d="M742 198C740.895 198 740 198.895 740 200C740 201.105 740.895 202 742 202V198ZM842.914 201.414C843.695 200.633 843.695 199.367 842.914 198.586L830.186 185.858C829.405 185.077 828.139 185.077 827.358 185.858C826.577 186.639 826.577 187.905 827.358 188.686L838.672 200L827.358 211.314C826.577 212.095 826.577 213.361 827.358 214.142C828.139 214.923 829.405 214.923 830.186 214.142L842.914 201.414ZM742 200V202H841.5V200V198H742V200Z" fill="#D9D9D9"/>
<rect x="1584" y="376" width="256" height="128" rx="6" fill="#F6778F"/>
<path d="M1682.19 447.312C1682.19 446.773 1682.36 446.312 1682.7 445.93C1683.05 445.547 1683.56 445.355 1684.21 445.355C1684.85 445.355 1685.35 445.547 1685.71 445.93C1686.07 446.305 1686.25 446.766 1686.25 447.312C1686.25 447.859 1686.07 448.316 1685.7 448.684C1685.34 449.051 1684.85 449.234 1684.21 449.234C1683.57 449.234 1683.07 449.051 1682.71 448.684C1682.36 448.309 1682.19 447.852 1682.19 447.312ZM1692.65 449V436.32H1695.18L1695.36 438.125C1695.53 437.883 1695.72 437.66 1695.92 437.457C1696.13 437.246 1696.35 437.059 1696.59 436.895C1696.96 436.637 1697.37 436.438 1697.82 436.297C1698.26 436.156 1698.73 436.086 1699.23 436.086C1699.87 436.086 1700.47 436.18 1701.01 436.367C1701.55 436.555 1702.01 436.852 1702.39 437.258C1702.77 437.664 1703.07 438.184 1703.28 438.816C1703.49 439.441 1703.6 440.199 1703.6 441.09V449H1700.8V441.137C1700.8 440.613 1700.74 440.176 1700.62 439.824C1700.5 439.473 1700.33 439.191 1700.1 438.98C1699.88 438.77 1699.6 438.621 1699.28 438.535C1698.96 438.441 1698.6 438.395 1698.18 438.395C1697.84 438.395 1697.52 438.441 1697.22 438.535C1696.92 438.621 1696.66 438.746 1696.41 438.91C1696.23 439.035 1696.05 439.188 1695.89 439.367C1695.72 439.547 1695.58 439.742 1695.45 439.953V449H1692.65ZM1706.09 442.543C1706.09 441.621 1706.23 440.77 1706.49 439.988C1706.76 439.199 1707.14 438.516 1707.65 437.938C1708.15 437.359 1708.77 436.906 1709.49 436.578C1710.22 436.25 1711.05 436.086 1711.98 436.086C1712.91 436.086 1713.73 436.25 1714.46 436.578C1715.2 436.906 1715.82 437.359 1716.32 437.938C1716.82 438.516 1717.21 439.199 1717.47 439.988C1717.74 440.77 1717.87 441.621 1717.87 442.543V442.789C1717.87 443.719 1717.74 444.574 1717.47 445.355C1717.21 446.137 1716.82 446.816 1716.32 447.395C1715.82 447.973 1715.21 448.426 1714.47 448.754C1713.75 449.082 1712.92 449.246 1712 449.246C1711.07 449.246 1710.24 449.082 1709.5 448.754C1708.77 448.426 1708.15 447.973 1707.65 447.395C1707.14 446.816 1706.76 446.137 1706.49 445.355C1706.23 444.574 1706.09 443.719 1706.09 442.789V442.543ZM1708.89 442.789C1708.89 443.359 1708.95 443.898 1709.07 444.406C1709.2 444.914 1709.39 445.359 1709.64 445.742C1709.89 446.125 1710.21 446.43 1710.61 446.656C1711 446.875 1711.46 446.984 1712 446.984C1712.52 446.984 1712.98 446.875 1713.37 446.656C1713.76 446.43 1714.08 446.125 1714.33 445.742C1714.58 445.359 1714.77 444.914 1714.88 444.406C1715.01 443.898 1715.07 443.359 1715.07 442.789V442.543C1715.07 441.988 1715.01 441.457 1714.88 440.949C1714.76 440.441 1714.57 439.996 1714.33 439.613C1714.07 439.23 1713.75 438.926 1713.36 438.699C1712.98 438.473 1712.52 438.359 1711.98 438.359C1711.45 438.359 1710.98 438.473 1710.59 438.699C1710.21 438.926 1709.89 439.23 1709.64 439.613C1709.39 439.996 1709.2 440.441 1709.07 440.949C1708.95 441.457 1708.89 441.988 1708.89 442.543V442.789ZM1720.57 449V436.32H1723.1L1723.27 438.125C1723.45 437.883 1723.63 437.66 1723.84 437.457C1724.05 437.246 1724.27 437.059 1724.5 436.895C1724.88 436.637 1725.29 436.438 1725.74 436.297C1726.18 436.156 1726.65 436.086 1727.14 436.086C1727.79 436.086 1728.38 436.18 1728.92 436.367C1729.46 436.555 1729.92 436.852 1730.31 437.258C1730.69 437.664 1730.99 438.184 1731.2 438.816C1731.41 439.441 1731.51 440.199 1731.51 441.09V449H1728.71V441.137C1728.71 440.613 1728.65 440.176 1728.54 439.824C1728.42 439.473 1728.25 439.191 1728.02 438.98C1727.79 438.77 1727.52 438.621 1727.2 438.535C1726.88 438.441 1726.51 438.395 1726.1 438.395C1725.75 438.395 1725.43 438.441 1725.14 438.535C1724.84 438.621 1724.57 438.746 1724.33 438.91C1724.14 439.035 1723.97 439.188 1723.8 439.367C1723.64 439.547 1723.49 439.742 1723.37 439.953V449H1720.57ZM1740.44 449.234C1739.51 449.234 1738.65 449.078 1737.87 448.766C1737.09 448.453 1736.43 448.02 1735.87 447.465C1735.32 446.918 1734.89 446.273 1734.58 445.531C1734.29 444.781 1734.14 443.973 1734.14 443.105V442.625C1734.14 441.633 1734.3 440.734 1734.61 439.93C1734.92 439.125 1735.35 438.438 1735.9 437.867C1736.44 437.297 1737.08 436.859 1737.8 436.555C1738.52 436.242 1739.3 436.086 1740.12 436.086C1741.03 436.086 1741.84 436.242 1742.54 436.555C1743.24 436.859 1743.83 437.285 1744.31 437.832C1744.79 438.387 1745.15 439.047 1745.39 439.812C1745.63 440.578 1745.75 441.414 1745.75 442.32V443.527H1736.96V443.586C1737.05 444.141 1737.18 444.605 1737.36 444.98C1737.54 445.355 1737.79 445.691 1738.1 445.988C1738.41 446.301 1738.78 446.543 1739.2 446.715C1739.63 446.887 1740.1 446.973 1740.61 446.973C1741.3 446.973 1741.95 446.84 1742.55 446.574C1743.15 446.301 1743.65 445.914 1744.04 445.414L1745.54 446.867C1745.12 447.477 1744.47 448.023 1743.6 448.508C1742.73 448.992 1741.68 449.234 1740.44 449.234ZM1740.1 438.359C1739.71 438.359 1739.33 438.434 1738.99 438.582C1738.65 438.723 1738.35 438.926 1738.09 439.191C1737.82 439.465 1737.6 439.793 1737.42 440.176C1737.24 440.559 1737.11 440.992 1737.02 441.477H1742.99V441.289C1742.99 440.922 1742.92 440.559 1742.79 440.199C1742.65 439.832 1742.47 439.512 1742.22 439.238C1741.99 438.973 1741.69 438.762 1741.33 438.605C1740.98 438.441 1740.57 438.359 1740.1 438.359Z" fill="black" fill-opacity="0.8"/>
<rect x="848" y="376" width="256" height="128" rx="6" fill="#F6778F"/>
<path d="M946.185 447.312C946.185 446.773 946.357 446.312 946.701 445.93C947.053 445.547 947.557 445.355 948.213 445.355C948.853 445.355 949.353 445.547 949.713 445.93C950.072 446.305 950.252 446.766 950.252 447.312C950.252 447.859 950.068 448.316 949.701 448.684C949.342 449.051 948.846 449.234 948.213 449.234C947.572 449.234 947.072 449.051 946.713 448.684C946.361 448.309 946.185 447.852 946.185 447.312ZM956.651 449V436.32H959.183L959.358 438.125C959.53 437.883 959.718 437.66 959.921 437.457C960.132 437.246 960.354 437.059 960.589 436.895C960.964 436.637 961.374 436.438 961.819 436.297C962.265 436.156 962.733 436.086 963.226 436.086C963.874 436.086 964.468 436.18 965.007 436.367C965.546 436.555 966.007 436.852 966.39 437.258C966.772 437.664 967.069 438.184 967.28 438.816C967.491 439.441 967.597 440.199 967.597 441.09V449H964.796V441.137C964.796 440.613 964.737 440.176 964.62 439.824C964.503 439.473 964.331 439.191 964.104 438.98C963.878 438.77 963.604 438.621 963.284 438.535C962.964 438.441 962.597 438.395 962.183 438.395C961.839 438.395 961.519 438.441 961.222 438.535C960.925 438.621 960.655 438.746 960.413 438.91C960.226 439.035 960.05 439.188 959.886 439.367C959.722 439.547 959.577 439.742 959.452 439.953V449H956.651ZM970.094 442.543C970.094 441.621 970.227 440.77 970.492 439.988C970.758 439.199 971.145 438.516 971.652 437.938C972.152 437.359 972.766 436.906 973.492 436.578C974.219 436.25 975.047 436.086 975.977 436.086C976.906 436.086 977.734 436.25 978.461 436.578C979.195 436.906 979.816 437.359 980.324 437.938C980.824 438.516 981.207 439.199 981.473 439.988C981.738 440.77 981.871 441.621 981.871 442.543V442.789C981.871 443.719 981.738 444.574 981.473 445.355C981.207 446.137 980.824 446.816 980.324 447.395C979.824 447.973 979.207 448.426 978.473 448.754C977.746 449.082 976.922 449.246 976 449.246C975.07 449.246 974.238 449.082 973.504 448.754C972.77 448.426 972.152 447.973 971.652 447.395C971.145 446.816 970.758 446.137 970.492 445.355C970.227 444.574 970.094 443.719 970.094 442.789V442.543ZM972.895 442.789C972.895 443.359 972.953 443.898 973.07 444.406C973.195 444.914 973.387 445.359 973.645 445.742C973.895 446.125 974.215 446.43 974.605 446.656C974.996 446.875 975.461 446.984 976 446.984C976.523 446.984 976.98 446.875 977.371 446.656C977.762 446.43 978.082 446.125 978.332 445.742C978.582 445.359 978.766 444.914 978.883 444.406C979.008 443.898 979.07 443.359 979.07 442.789V442.543C979.07 441.988 979.008 441.457 978.883 440.949C978.758 440.441 978.574 439.996 978.332 439.613C978.074 439.23 977.75 438.926 977.359 438.699C976.977 438.473 976.516 438.359 975.977 438.359C975.445 438.359 974.984 438.473 974.594 438.699C974.211 438.926 973.895 439.23 973.645 439.613C973.387 439.996 973.195 440.441 973.07 440.949C972.953 441.457 972.895 441.988 972.895 442.543V442.789ZM984.567 449V436.32H987.099L987.274 438.125C987.446 437.883 987.634 437.66 987.837 437.457C988.048 437.246 988.271 437.059 988.505 436.895C988.88 436.637 989.29 436.438 989.735 436.297C990.181 436.156 990.649 436.086 991.142 436.086C991.79 436.086 992.384 436.18 992.923 436.367C993.462 436.555 993.923 436.852 994.306 437.258C994.689 437.664 994.985 438.184 995.196 438.816C995.407 439.441 995.513 440.199 995.513 441.09V449H992.712V441.137C992.712 440.613 992.653 440.176 992.536 439.824C992.419 439.473 992.247 439.191 992.021 438.98C991.794 438.77 991.521 438.621 991.2 438.535C990.88 438.441 990.513 438.395 990.099 438.395C989.755 438.395 989.435 438.441 989.138 438.535C988.841 438.621 988.571 438.746 988.329 438.91C988.142 439.035 987.966 439.188 987.802 439.367C987.638 439.547 987.493 439.742 987.368 439.953V449H984.567ZM1004.44 449.234C1003.51 449.234 1002.65 449.078 1001.87 448.766C1001.09 448.453 1000.43 448.02 999.873 447.465C999.318 446.918 998.889 446.273 998.584 445.531C998.287 444.781 998.139 443.973 998.139 443.105V442.625C998.139 441.633 998.295 440.734 998.608 439.93C998.92 439.125 999.35 438.438 999.897 437.867C1000.44 437.297 1001.08 436.859 1001.8 436.555C1002.52 436.242 1003.3 436.086 1004.12 436.086C1005.03 436.086 1005.84 436.242 1006.54 436.555C1007.24 436.859 1007.83 437.285 1008.31 437.832C1008.79 438.387 1009.15 439.047 1009.39 439.812C1009.63 440.578 1009.75 441.414 1009.75 442.32V443.527H1000.96V443.586C1001.05 444.141 1001.18 444.605 1001.36 444.98C1001.54 445.355 1001.79 445.691 1002.1 445.988C1002.41 446.301 1002.78 446.543 1003.2 446.715C1003.63 446.887 1004.1 446.973 1004.61 446.973C1005.3 446.973 1005.95 446.84 1006.55 446.574C1007.15 446.301 1007.65 445.914 1008.04 445.414L1009.54 446.867C1009.12 447.477 1008.47 448.023 1007.6 448.508C1006.73 448.992 1005.68 449.234 1004.44 449.234ZM1004.1 438.359C1003.71 438.359 1003.33 438.434 1002.99 438.582C1002.65 438.723 1002.35 438.926 1002.09 439.191C1001.82 439.465 1001.6 439.793 1001.42 440.176C1001.24 440.559 1001.11 440.992 1001.02 441.477H1006.99V441.289C1006.99 440.922 1006.92 440.559 1006.79 440.199C1006.65 439.832 1006.47 439.512 1006.22 439.238C1005.99 438.973 1005.69 438.762 1005.33 438.605C1004.98 438.441 1004.57 438.359 1004.1 438.359Z" fill="black" fill-opacity="0.8"/>
<path d="M1340.6 353.056C1342.65 351.648 1345.35 351.648 1347.4 353.056L1469.4 435.056C1472.87 437.44 1472.87 442.56 1469.4 444.944L1347.4 526.944C1345.35 528.352 1342.65 528.352 1340.6 526.944L1218.6 444.944C1215.13 442.56 1215.13 437.44 1218.6 435.056L1340.6 353.056Z" fill="#C0CAF5"/>
<path d="M1299.92 449V438.418H1296.52V436.32H1299.92V435.547C1299.92 434.719 1300.05 433.992 1300.3 433.367C1300.56 432.734 1300.92 432.203 1301.39 431.773C1301.86 431.352 1302.42 431.031 1303.08 430.812C1303.74 430.594 1304.48 430.484 1305.3 430.484C1305.59 430.484 1305.87 430.5 1306.15 430.531C1306.43 430.555 1306.7 430.586 1306.97 430.625C1307.18 430.656 1307.41 430.695 1307.63 430.742C1307.86 430.781 1308.09 430.824 1308.33 430.871L1308.1 433.109C1307.79 433.023 1307.43 432.949 1307.04 432.887C1306.65 432.824 1306.2 432.793 1305.7 432.793C1305.18 432.793 1304.72 432.855 1304.34 432.98C1303.97 433.105 1303.66 433.289 1303.41 433.531C1303.19 433.758 1303.02 434.039 1302.9 434.375C1302.79 434.711 1302.74 435.102 1302.74 435.547V436.32H1307.43V438.418H1302.74V449H1299.92ZM1311.23 431H1318.06V446.68H1321.91V449H1311.23V446.68H1315.24V433.332H1311.23V431ZM1332.75 449C1332.66 448.844 1332.59 448.656 1332.54 448.438C1332.49 448.211 1332.45 447.977 1332.41 447.734C1332.21 447.938 1331.99 448.133 1331.74 448.32C1331.5 448.5 1331.23 448.656 1330.92 448.789C1330.62 448.93 1330.29 449.039 1329.94 449.117C1329.58 449.195 1329.21 449.234 1328.8 449.234C1328.14 449.234 1327.54 449.141 1327 448.953C1326.46 448.758 1326 448.492 1325.61 448.156C1325.22 447.828 1324.92 447.434 1324.7 446.973C1324.49 446.504 1324.38 446 1324.38 445.461C1324.38 444.766 1324.52 444.152 1324.79 443.621C1325.07 443.082 1325.48 442.637 1326.01 442.285C1326.5 441.957 1327.11 441.707 1327.83 441.535C1328.55 441.363 1329.37 441.277 1330.29 441.277H1332.33V440.422C1332.33 440.094 1332.27 439.797 1332.15 439.531C1332.04 439.266 1331.88 439.035 1331.67 438.84C1331.44 438.645 1331.17 438.496 1330.84 438.395C1330.52 438.285 1330.15 438.23 1329.73 438.23C1329.34 438.23 1329.01 438.277 1328.72 438.371C1328.44 438.465 1328.2 438.594 1328.01 438.758C1327.83 438.906 1327.69 439.09 1327.59 439.309C1327.51 439.52 1327.46 439.746 1327.46 439.988H1324.65C1324.66 439.48 1324.78 438.992 1325.01 438.523C1325.25 438.055 1325.59 437.641 1326.05 437.281C1326.48 436.914 1327.02 436.625 1327.66 436.414C1328.31 436.195 1329.05 436.086 1329.88 436.086C1330.62 436.086 1331.31 436.18 1331.95 436.367C1332.6 436.547 1333.16 436.816 1333.63 437.176C1334.1 437.535 1334.46 437.992 1334.73 438.547C1335 439.094 1335.13 439.727 1335.13 440.445V446.082C1335.13 446.652 1335.17 447.168 1335.25 447.629C1335.33 448.082 1335.45 448.473 1335.61 448.801V449H1332.75ZM1329.34 446.984C1329.71 446.984 1330.05 446.938 1330.36 446.844C1330.68 446.75 1330.97 446.629 1331.23 446.48C1331.48 446.332 1331.71 446.164 1331.89 445.977C1332.08 445.789 1332.23 445.594 1332.33 445.391V443.047H1330.52C1329.91 443.047 1329.39 443.105 1328.94 443.223C1328.5 443.332 1328.14 443.492 1327.87 443.703C1327.64 443.883 1327.46 444.098 1327.35 444.348C1327.24 444.598 1327.18 444.879 1327.18 445.191C1327.18 445.449 1327.23 445.691 1327.32 445.918C1327.42 446.137 1327.55 446.324 1327.73 446.48C1327.91 446.637 1328.14 446.762 1328.4 446.855C1328.67 446.941 1328.98 446.984 1329.34 446.984ZM1344.23 433.227V436.32H1349V438.418H1344.23V444.477C1344.23 444.945 1344.29 445.34 1344.4 445.66C1344.52 445.973 1344.68 446.219 1344.88 446.398C1345.08 446.586 1345.32 446.719 1345.61 446.797C1345.89 446.875 1346.2 446.914 1346.53 446.914C1346.77 446.914 1347.02 446.902 1347.28 446.879C1347.54 446.855 1347.79 446.824 1348.03 446.785C1348.27 446.754 1348.48 446.719 1348.69 446.68C1348.9 446.633 1349.07 446.594 1349.21 446.562L1349.52 448.496C1349.32 448.621 1349.07 448.73 1348.78 448.824C1348.5 448.91 1348.2 448.984 1347.87 449.047C1347.54 449.109 1347.2 449.156 1346.84 449.188C1346.48 449.227 1346.13 449.246 1345.78 449.246C1345.14 449.246 1344.55 449.16 1344.01 448.988C1343.48 448.809 1343.02 448.531 1342.64 448.156C1342.26 447.789 1341.96 447.316 1341.74 446.738C1341.53 446.16 1341.42 445.465 1341.42 444.652V438.418H1338.35V436.32H1341.42V433.227H1344.23ZM1355.84 431.938L1357.95 439.238L1360.28 431.938H1363.78V449H1361.13V443.211L1361.3 435.594L1358.67 443.738H1357.21L1354.83 435.875L1354.98 443.211V449H1352.34V431.938H1355.84ZM1374.62 449C1374.54 448.844 1374.47 448.656 1374.41 448.438C1374.37 448.211 1374.32 447.977 1374.28 447.734C1374.09 447.938 1373.87 448.133 1373.62 448.32C1373.37 448.5 1373.1 448.656 1372.8 448.789C1372.49 448.93 1372.16 449.039 1371.81 449.117C1371.46 449.195 1371.08 449.234 1370.67 449.234C1370.02 449.234 1369.42 449.141 1368.87 448.953C1368.33 448.758 1367.87 448.492 1367.49 448.156C1367.1 447.828 1366.79 447.434 1366.57 446.973C1366.36 446.504 1366.26 446 1366.26 445.461C1366.26 444.766 1366.39 444.152 1366.67 443.621C1366.95 443.082 1367.35 442.637 1367.88 442.285C1368.38 441.957 1368.98 441.707 1369.7 441.535C1370.43 441.363 1371.25 441.277 1372.16 441.277H1374.2V440.422C1374.2 440.094 1374.14 439.797 1374.03 439.531C1373.92 439.266 1373.76 439.035 1373.55 438.84C1373.32 438.645 1373.04 438.496 1372.71 438.395C1372.39 438.285 1372.02 438.23 1371.6 438.23C1371.22 438.23 1370.88 438.277 1370.59 438.371C1370.31 438.465 1370.08 438.594 1369.89 438.758C1369.7 438.906 1369.56 439.09 1369.47 439.309C1369.38 439.52 1369.34 439.746 1369.34 439.988H1366.53C1366.53 439.48 1366.65 438.992 1366.89 438.523C1367.12 438.055 1367.47 437.641 1367.92 437.281C1368.36 436.914 1368.9 436.625 1369.54 436.414C1370.19 436.195 1370.92 436.086 1371.75 436.086C1372.49 436.086 1373.19 436.18 1373.83 436.367C1374.47 436.547 1375.03 436.816 1375.5 437.176C1375.97 437.535 1376.34 437.992 1376.6 438.547C1376.87 439.094 1377 439.727 1377 440.445V446.082C1377 446.652 1377.04 447.168 1377.12 447.629C1377.21 448.082 1377.33 448.473 1377.48 448.801V449H1374.62ZM1371.21 446.984C1371.58 446.984 1371.92 446.938 1372.23 446.844C1372.55 446.75 1372.84 446.629 1373.1 446.48C1373.36 446.332 1373.58 446.164 1373.77 445.977C1373.96 445.789 1374.1 445.594 1374.2 445.391V443.047H1372.4C1371.79 443.047 1371.26 443.105 1370.81 443.223C1370.37 443.332 1370.01 443.492 1369.75 443.703C1369.51 443.883 1369.34 444.098 1369.22 444.348C1369.11 444.598 1369.06 444.879 1369.06 445.191C1369.06 445.449 1369.1 445.691 1369.2 445.918C1369.29 446.137 1369.43 446.324 1369.61 446.48C1369.79 446.637 1370.01 446.762 1370.28 446.855C1370.54 446.941 1370.85 446.984 1371.21 446.984ZM1380.51 453.875V436.32H1383.09L1383.19 437.621C1383.36 437.41 1383.55 437.219 1383.75 437.047C1383.96 436.875 1384.17 436.727 1384.41 436.602C1384.71 436.438 1385.05 436.312 1385.42 436.227C1385.78 436.133 1386.17 436.086 1386.59 436.086C1387.4 436.086 1388.12 436.242 1388.73 436.555C1389.36 436.867 1389.88 437.309 1390.3 437.879C1390.72 438.449 1391.03 439.133 1391.25 439.93C1391.47 440.719 1391.58 441.59 1391.58 442.543V442.789C1391.58 443.703 1391.47 444.555 1391.25 445.344C1391.04 446.133 1390.73 446.812 1390.3 447.383C1389.88 447.961 1389.36 448.414 1388.75 448.742C1388.13 449.07 1387.42 449.234 1386.62 449.234C1386.17 449.234 1385.75 449.188 1385.37 449.094C1385 449 1384.65 448.863 1384.33 448.684C1384.14 448.574 1383.96 448.449 1383.79 448.309C1383.62 448.168 1383.46 448.016 1383.31 447.852V453.875H1380.51ZM1388.78 442.543C1388.78 441.973 1388.72 441.438 1388.6 440.938C1388.5 440.43 1388.32 439.988 1388.09 439.613C1387.85 439.238 1387.54 438.941 1387.16 438.723C1386.79 438.504 1386.34 438.395 1385.82 438.395C1385.53 438.395 1385.26 438.426 1385.01 438.488C1384.76 438.551 1384.53 438.641 1384.34 438.758C1384.11 438.883 1383.91 439.039 1383.74 439.227C1383.58 439.414 1383.43 439.625 1383.31 439.859V445.496C1383.42 445.715 1383.55 445.914 1383.71 446.094C1383.86 446.273 1384.04 446.43 1384.25 446.562C1384.46 446.688 1384.69 446.789 1384.96 446.867C1385.23 446.938 1385.52 446.973 1385.84 446.973C1386.36 446.973 1386.81 446.863 1387.17 446.645C1387.55 446.418 1387.85 446.113 1388.09 445.73C1388.33 445.34 1388.51 444.895 1388.62 444.395C1388.73 443.887 1388.78 443.352 1388.78 442.789V442.543Z" fill="black" fill-opacity="0.8"/>
<path d="M1110 438C1108.9 438 1108 438.895 1108 440C1108 441.105 1108.9 442 1110 442V438ZM1210.91 441.414C1211.7 440.633 1211.7 439.367 1210.91 438.586L1198.19 425.858C1197.41 425.077 1196.14 425.077 1195.36 425.858C1194.58 426.639 1194.58 427.905 1195.36 428.686L1206.67 440L1195.36 451.314C1194.58 452.095 1194.58 453.361 1195.36 454.142C1196.14 454.923 1197.41 454.923 1198.19 454.142L1210.91 441.414ZM1110 440V442H1209.5V440V438H1110V440Z" fill="#D9D9D9"/>
<path d="M1478 438C1476.9 438 1476 438.895 1476 440C1476 441.105 1476.9 442 1478 442V438ZM1578.91 441.414C1579.7 440.633 1579.7 439.367 1578.91 438.586L1566.19 425.858C1565.41 425.077 1564.14 425.077 1563.36 425.858C1562.58 426.639 1562.58 427.905 1563.36 428.686L1574.67 440L1563.36 451.314C1562.58 452.095 1562.58 453.361 1563.36 454.142C1564.14 454.923 1565.41 454.923 1566.19 454.142L1578.91 441.414ZM1478 440V442H1577.5V440V438H1478V440Z" fill="#D9D9D9"/>
<path d="M1346 294C1346 292.895 1345.1 292 1344 292C1342.9 292 1342 292.895 1342 294H1346ZM1578.91 441.414C1579.7 440.633 1579.7 439.367 1578.91 438.586L1566.19 425.858C1565.41 425.077 1564.14 425.077 1563.36 425.858C1562.58 426.639 1562.58 427.905 1563.36 428.686L1574.67 440L1563.36 451.314C1562.58 452.095 1562.58 453.361 1563.36 454.142C1564.14 454.923 1565.41 454.923 1566.19 454.142L1578.91 441.414ZM1344 294H1342V304H1344H1346V294H1344ZM1368 328V330H1496V328V326H1368V328ZM1520 352H1518V416H1520H1522V352H1520ZM1544 440V442H1577.5V440V438H1544V440ZM1520 416H1518C1518 430.359 1529.64 442 1544 442V440V438C1531.85 438 1522 428.15 1522 416H1520ZM1496 328V330C1508.15 330 1518 339.85 1518 352H1520H1522C1522 337.641 1510.36 326 1496 326V328ZM1344 304H1342C1342 318.359 1353.64 330 1368 330V328V326C1355.85 326 1346 316.15 1346 304H1344Z" fill="#D9D9D9"/>
<path d="M610 294C610 292.895 609.105 292 608 292C606.895 292 606 292.895 606 294H610ZM842.914 441.414C843.695 440.633 843.695 439.367 842.914 438.586L830.186 425.858C829.405 425.077 828.139 425.077 827.358 425.858C826.577 426.639 826.577 427.905 827.358 428.686L838.672 440L827.358 451.314C826.577 452.095 826.577 453.361 827.358 454.142C828.139 454.923 829.405 454.923 830.186 454.142L842.914 441.414ZM608 294H606V304H608H610V294H608ZM632 328V330H760V328V326H632V328ZM784 352H782V416H784H786V352H784ZM808 440V442H841.5V440V438H808V440ZM784 416H782C782 430.359 793.641 442 808 442V440V438C795.85 438 786 428.15 786 416H784ZM760 328V330C772.15 330 782 339.85 782 352H784H786C786 337.641 774.359 326 760 326V328ZM608 304H606C606 318.359 617.641 330 632 330V328V326C619.85 326 610 316.15 610 304H608Z" fill="#D9D9D9"/>
</svg>
